<svg id="Group_31881" data-name="Group 31881" xmlns="http://www.w3.org/2000/svg" xmlns:xlink="http://www.w3.org/1999/xlink" width="545.454" height="342.78" viewBox="0 0 545.454 342.78">
  <defs>
    <clipPath id="clip-path">
      <rect id="Rectangle_8601" data-name="Rectangle 8601" width="545.454" height="342.78" fill="none"/>
    </clipPath>
    <clipPath id="clip-path-3">
      <rect id="Rectangle_8551" data-name="Rectangle 8551" width="114.394" height="342.78" fill="none"/>
    </clipPath>
  </defs>
  <g id="Group_24296" data-name="Group 24296" clip-path="url(#clip-path)">
    <g id="Group_24249" data-name="Group 24249">
      <g id="Group_24248" data-name="Group 24248" clip-path="url(#clip-path)">
        <path id="Path_70192" data-name="Path 70192" d="M530.773,342.78H14.681A14.682,14.682,0,0,1,0,328.1V14.681A14.682,14.682,0,0,1,14.681,0H530.773a14.682,14.682,0,0,1,14.681,14.681V328.1a14.682,14.682,0,0,1-14.681,14.681" fill="#f2f5fa"/>
        <path id="Path_70193" data-name="Path 70193" d="M545.454,31.108H0V14.681A14.682,14.682,0,0,1,14.681,0H530.773a14.682,14.682,0,0,1,14.681,14.681Z" fill="#cad546"/>
        <g id="Group_24247" data-name="Group 24247" style="mix-blend-mode: multiply;isolation: isolate">
          <g id="Group_24246" data-name="Group 24246">
            <g id="Group_24245" data-name="Group 24245" clip-path="url(#clip-path-3)">
              <path id="Path_70194" data-name="Path 70194" d="M114.394,342.78H14.681A14.681,14.681,0,0,1,0,328.1V14.681A14.681,14.681,0,0,1,14.681,0h99.714Z" fill="#d5de47"/>
            </g>
          </g>
        </g>
      </g>
    </g>
    <g id="Group_24251" data-name="Group 24251">
      <g id="Group_24250" data-name="Group 24250" clip-path="url(#clip-path)">
        <path id="Path_70195" data-name="Path 70195" d="M26.9,127.695l-1.118-.978-3.2,2.739a.65.65,0,0,0,.446.175h7.737a.649.649,0,0,0,.444-.175l-3.194-2.739Z" transform="translate(-3.295 -18.486)"/>
        <path id="Path_70196" data-name="Path 70196" d="M31.217,122.747a.649.649,0,0,0-.446-.174H23.034a.642.642,0,0,0-.444.176l4.312,3.7Z" transform="translate(-3.296 -17.882)"/>
        <path id="Path_70197" data-name="Path 70197" d="M22.35,123.236V128.6l3.119-2.65Z" transform="translate(-3.261 -17.978)"/>
        <path id="Path_70198" data-name="Path 70198" d="M29.277,125.947,32.4,128.6v-5.364Z" transform="translate(-4.271 -17.978)"/>
        <path id="Path_70199" data-name="Path 70199" d="M28.093,159.382a1.828,1.828,0,1,0-1.971,0,2.343,2.343,0,0,0-2.13,2.33v1.9l.005.03.131.041a10.658,10.658,0,0,0,3.182.512,6.547,6.547,0,0,0,2.778-.521l.122-.062h.013v-1.9a2.343,2.343,0,0,0-2.129-2.33" transform="translate(-3.5 -29.579)"/>
        <path id="Path_70200" data-name="Path 70200" d="M31.207,230.382l-2.73-5.332a1.813,1.813,0,0,0-3.227,0l-2.731,5.332a1.813,1.813,0,0,0,1.613,2.638h5.461a1.812,1.812,0,0,0,1.613-2.638m-4.813-3.894h.946v1.365q0,.61-.044,1.115c-.029.338-.067.677-.11,1.021h-.631q-.073-.515-.117-1.024t-.044-1.112Zm.888,5.02a.619.619,0,0,1-.834,0,.547.547,0,0,1-.172-.418.559.559,0,0,1,.172-.422.607.607,0,0,1,.834,0,.566.566,0,0,1,.168.422.554.554,0,0,1-.168.418" transform="translate(-3.228 -29.766)"/>
        <path id="Path_70201" data-name="Path 70201" d="M26.451,194.946h4.33a4.329,4.329,0,1,1-4.33-4.329Z" transform="translate(-3.032 -41.445)"/>
        <path id="Path_70202" data-name="Path 70202" d="M28.333,194.087h4.329a4.33,4.33,0,0,0-4.329-4.329Z" transform="translate(-3.938 -41.319)"/>
        <path id="Path_70203" data-name="Path 70203" d="M27.229,85.636a.668.668,0,0,0-1.009,0l-4.854,5.582h2.008v4.051a.66.66,0,0,0,.66.66h5.381a.66.66,0,0,0,.659-.66V91.217h2.008Zm.442,9.923H25.778V93.541a.947.947,0,0,1,1.894,0Z" transform="translate(-3.117 -12.459)"/>
        <path id="Path_70204" data-name="Path 70204" d="M606.28,15.529a9.824,9.824,0,1,1-9.823-9.823,9.823,9.823,0,0,1,9.823,9.823" transform="translate(-85.581 -0.832)" fill="#fdfeff"/>
        <path id="Path_70205" data-name="Path 70205" d="M599,18.671a3.493,3.493,0,1,0-3.768,0,4.478,4.478,0,0,0-4.071,4.453v1.157a9.773,9.773,0,0,0,11.909,0V23.125A4.478,4.478,0,0,0,599,18.671" transform="translate(-86.242 -1.786)" fill="#e7e6e8"/>
      </g>
    </g>
    <text id="Overview" transform="translate(130.722 61.272)" fill="#0c0c4f" font-size="12" font-family="Montserrat-Thin, Montserrat" font-weight="200"><tspan x="0" y="0">O</tspan><tspan y="0" letter-spacing="-0.014em">v</tspan><tspan y="0">e</tspan><tspan y="0" letter-spacing="0.015em">r</tspan><tspan y="0">vi</tspan><tspan y="0" letter-spacing="-0.009em">e</tspan><tspan y="0">w</tspan></text>
    <g id="Group_24253" data-name="Group 24253">
      <g id="Group_24252" data-name="Group 24252" clip-path="url(#clip-path)">
        <path id="Path_70206" data-name="Path 70206" d="M252.571,24.341h-96.73a6.485,6.485,0,0,1-6.485-6.485V15.636a6.485,6.485,0,0,1,6.485-6.485h96.73a6.486,6.486,0,0,1,6.485,6.485v2.219a6.485,6.485,0,0,1-6.485,6.485" transform="translate(-21.789 -1.335)" fill="#fdfeff"/>
      </g>
    </g>
    <text id="Search" transform="translate(136.817 14.293)" fill="#848484" font-size="3" font-family="Montserrat-Thin, Montserrat" font-weight="200"><tspan x="0" y="0">S</tspan><tspan y="0" letter-spacing="-0.014em">e</tspan><tspan y="0">a</tspan><tspan y="0" letter-spacing="-0.015em">r</tspan><tspan y="0" letter-spacing="-0.009em">c</tspan><tspan y="0">h</tspan></text>
    <g id="Group_24255" data-name="Group 24255">
      <g id="Group_24254" data-name="Group 24254" clip-path="url(#clip-path)">
        <path id="Path_70207" data-name="Path 70207" d="M267.221,20.453l-1.541-1.541a2.958,2.958,0,0,1-.89.89l1.541,1.541a.629.629,0,0,0,.89-.89" transform="translate(-38.629 -2.759)" fill="#848484"/>
        <path id="Path_70208" data-name="Path 70208" d="M265.026,16.631a2.518,2.518,0,1,0-2.518,2.518,2.518,2.518,0,0,0,2.518-2.518m-2.518,1.888a1.889,1.889,0,1,1,1.888-1.888,1.891,1.891,0,0,1-1.888,1.888" transform="translate(-37.929 -2.059)" fill="#848484"/>
        <rect id="Rectangle_8555" data-name="Rectangle 8555" width="14.713" height="1.007" transform="translate(13.039 11.175)"/>
        <rect id="Rectangle_8556" data-name="Rectangle 8556" width="14.713" height="1.007" transform="translate(13.039 14.558)"/>
        <rect id="Rectangle_8557" data-name="Rectangle 8557" width="14.713" height="1.007" transform="translate(13.039 17.942)"/>
      </g>
    </g>
    <text id="Hi_Laura_Jane" data-name="Hi, Laura Jane" transform="translate(435.938 16.552)" fill="#fff" font-size="6" font-family="Montserrat-Thin, Montserrat" font-weight="200"><tspan x="0" y="0">Hi, Lau</tspan><tspan y="0" letter-spacing="-0.034em">r</tspan><tspan y="0">a Jane</tspan></text>
    <text id="Messages" transform="translate(35.827 108.509)" font-size="6" font-family="Montserrat-Thin, Montserrat" font-weight="200"><tspan x="0" y="0">Messages</tspan></text>
    <text id="Dashboard" transform="translate(35.827 80.727)" font-size="6" font-family="Montserrat-Thin, Montserrat" font-weight="200"><tspan x="0" y="0">Dashboa</tspan><tspan y="0" letter-spacing="-0.014em">r</tspan><tspan y="0">d</tspan></text>
    <text id="Account" transform="translate(35.827 131.331)" font-size="6" font-family="Montserrat-Thin, Montserrat" font-weight="200"><tspan x="0" y="0" letter-spacing="-0.004em">A</tspan><tspan y="0" letter-spacing="-0.01em">cc</tspan><tspan y="0">ount</tspan></text>
    <text id="Chart" transform="translate(35.827 154.145)" font-size="6" font-family="Montserrat-Thin, Montserrat" font-weight="200"><tspan x="0" y="0">Cha</tspan><tspan y="0" letter-spacing="0.015em">r</tspan><tspan y="0">t</tspan></text>
    <text id="Calendar" transform="translate(35.827 176.959)" font-size="6" font-family="Montserrat-Thin, Montserrat" font-weight="200"><tspan x="0" y="0" letter-spacing="-0.009em">C</tspan><tspan y="0">alendar</tspan></text>
    <text id="Reports" transform="translate(35.827 199.772)" font-size="6" font-family="Montserrat-Thin, Montserrat" font-weight="200"><tspan x="0" y="0">Repo</tspan><tspan y="0" letter-spacing="0.015em">r</tspan><tspan y="0">ts</tspan></text>
    <g id="Group_24257" data-name="Group 24257">
      <g id="Group_24256" data-name="Group 24256" clip-path="url(#clip-path)">
        <path id="Path_70209" data-name="Path 70209" d="M102.448,130.586h-8.44a1.072,1.072,0,0,1-1.073-1.073v-7.793a1.073,1.073,0,0,1,1.073-1.073h8.44a1.073,1.073,0,0,1,1.073,1.073v7.793a1.072,1.072,0,0,1-1.073,1.073" transform="translate(-13.558 -17.601)" fill="#1ddba9"/>
      </g>
    </g>
    <text id="_3" data-name="3" transform="translate(82.883 110.035)" fill="#fff" font-size="5" font-family="Montserrat-Thin, Montserrat" font-weight="200"><tspan x="0" y="0">3</tspan></text>
    <g id="Group_24259" data-name="Group 24259">
      <g id="Group_24258" data-name="Group 24258" clip-path="url(#clip-path)">
        <path id="Path_70210" data-name="Path 70210" d="M583.116,164.8H425.889a6.424,6.424,0,0,1-6.424-6.425V97.026a6.423,6.423,0,0,1,6.424-6.424H583.116a6.424,6.424,0,0,1,6.425,6.424v61.345a6.425,6.425,0,0,1-6.425,6.425" transform="translate(-61.194 -13.218)" fill="#fff"/>
      </g>
    </g>
    <text id="_3_124" data-name="$ 3,124" transform="translate(378.88 132.861)" fill="#1ddba9" font-size="6" font-family="Montserrat-Thin, Montserrat" font-weight="200"><tspan x="0" y="0">$ 3</tspan><tspan y="0" letter-spacing="-0.009em">,</tspan><tspan y="0">1</tspan><tspan y="0" letter-spacing="-0.029em">2</tspan><tspan y="0">4</tspan></text>
    <text id="_lorem_ipsum_dolor" data-name="*lorem ipsum dolor" transform="translate(377.897 140.26)" fill="#617087" font-size="1" font-family="Montserrat-Thin, Montserrat" font-weight="200"><tspan x="0" y="0" letter-spacing="0.02em">*</tspan><tspan y="0">lo</tspan><tspan y="0" letter-spacing="-0.014em">r</tspan><tspan y="0">em ipsum dolor</tspan></text>
    <text id="_lorem_ipsum_dolor-2" data-name="*lorem ipsum dolor" transform="translate(428.255 140.26)" fill="#617087" font-size="1" font-family="Montserrat-Thin, Montserrat" font-weight="200"><tspan x="0" y="0" letter-spacing="0.02em">*</tspan><tspan y="0">lo</tspan><tspan y="0" letter-spacing="-0.014em">r</tspan><tspan y="0">em ipsum dolor</tspan></text>
    <text id="_1_340_230" data-name="1,340,230" transform="translate(423.969 132.031)" fill="#1ddba9" font-size="6" font-family="Montserrat-Thin, Montserrat" font-weight="200"><tspan x="0" y="0">1</tspan><tspan y="0" letter-spacing="0.01em">,</tspan><tspan y="0">34</tspan><tspan y="0" letter-spacing="-0.009em">0</tspan><tspan y="0" letter-spacing="0.01em">,</tspan><tspan y="0">230</tspan></text>
    <text id="_lorem_ipsum_dolor-3" data-name="*lorem ipsum dolor" transform="translate(480.418 138.265)" fill="#617087" font-size="1" font-family="Montserrat-Thin, Montserrat" font-weight="200"><tspan x="0" y="0" letter-spacing="0.02em">*</tspan><tspan y="0">lo</tspan><tspan y="0" letter-spacing="-0.014em">r</tspan><tspan y="0">em ipsum dolor</tspan></text>
    <text id="_135_020" data-name="135,020" transform="translate(479.347 132.031)" fill="#1ddba9" font-size="6" font-family="Montserrat-Thin, Montserrat" font-weight="200"><tspan x="0" y="0">1</tspan><tspan y="0" letter-spacing="-0.009em">3</tspan><tspan y="0">5</tspan><tspan y="0" letter-spacing="-0.009em">,</tspan><tspan y="0">0</tspan><tspan y="0" letter-spacing="-0.005em">2</tspan><tspan y="0">0</tspan></text>
    <text id="Downloads" transform="translate(429.86 102.629)" fill="#617087" font-size="3" font-family="Montserrat-Thin, Montserrat" font-weight="200"><tspan x="0" y="0">D</tspan><tspan y="0" letter-spacing="-0.014em">o</tspan><tspan y="0">wnloads</tspan></text>
    <text id="Earnings" transform="translate(382.394 102.629)" fill="#617087" font-size="3" font-family="Montserrat-Thin, Montserrat" font-weight="200"><tspan x="0" y="0" letter-spacing="-0.009em">E</tspan><tspan y="0">a</tspan><tspan y="0" letter-spacing="-0.009em">r</tspan><tspan y="0">nings</tspan></text>
    <text id="Favorites" transform="translate(484.888 102.629)" fill="#617087" font-size="3" font-family="Montserrat-Thin, Montserrat" font-weight="200"><tspan x="0" y="0" letter-spacing="-0.025em">F</tspan><tspan y="0" letter-spacing="-0.009em">a</tspan><tspan y="0" letter-spacing="-0.014em">v</tspan><tspan y="0">o</tspan><tspan y="0" letter-spacing="-0.01em">r</tspan><tspan y="0" letter-spacing="-0.019em">it</tspan><tspan y="0">es</tspan></text>
    <g id="Group_24261" data-name="Group 24261">
      <g id="Group_24260" data-name="Group 24260" clip-path="url(#clip-path)">
        <path id="Path_70211" data-name="Path 70211" d="M464.123,135.332c0,1.9-1.444,3.032-3.445,3.286v2.365h-1.825v-2.365a7.6,7.6,0,0,1-3.984-1.7l1-2.047a6.58,6.58,0,0,0,3.937,1.667c1.032,0,1.651-.382,1.651-1.064,0-2.1-5.922-.873-5.922-4.81,0-1.746,1.3-2.936,3.318-3.223v-2.254h1.825v2.239a7.561,7.561,0,0,1,3.381,1.159l-.968,2.079a7.746,7.746,0,0,0-3.461-1.143c-.841,0-1.413.3-1.413.9,0,2.048,5.922.9,5.905,4.905" transform="translate(-66.359 -18.263)" fill="#4a3dff"/>
        <path id="Path_70212" data-name="Path 70212" d="M521.9,134.274v-6.665H516.82v6.665h-2.258l4.8,5.752,4.8-5.752Z" transform="translate(-75.067 -18.616)" fill="#4a3dff"/>
        <path id="Path_70213" data-name="Path 70213" d="M578.278,126.207l1.85,4.459,4.812.381-3.669,3.137,1.125,4.7-4.118-2.521-4.118,2.521,1.125-4.7-3.669-3.137,4.812-.381Z" transform="translate(-83.391 -18.412)" fill="#4a3dff"/>
      </g>
    </g>
    <text id="Calculation" transform="translate(370.196 85.994)" fill="#617087" font-size="3" font-family="Montserrat-Thin, Montserrat" font-weight="200"><tspan x="0" y="0" letter-spacing="-0.009em">C</tspan><tspan y="0">alculation</tspan></text>
    <g id="Group_24263" data-name="Group 24263">
      <g id="Group_24262" data-name="Group 24262" clip-path="url(#clip-path)">
        <path id="Path_70214" data-name="Path 70214" d="M369.384,202.677H157.7a6.424,6.424,0,0,1-6.424-6.425V97.027A6.424,6.424,0,0,1,157.7,90.6H369.384a6.424,6.424,0,0,1,6.425,6.425v99.226a6.425,6.425,0,0,1-6.425,6.425" transform="translate(-22.069 -13.218)" fill="#fff"/>
      </g>
    </g>
    <text id="_1000" data-name="1000" transform="translate(143.489 159.936)" fill="#617087" font-size="2" font-family="Montserrat-Thin, Montserrat" font-weight="200"><tspan x="0" y="0">1000</tspan></text>
    <text id="_1500" data-name="1500" transform="translate(143.489 147.336)" fill="#617087" font-size="2" font-family="Montserrat-Thin, Montserrat" font-weight="200"><tspan x="0" y="0">1500</tspan></text>
    <text id="_2000" data-name="2000" transform="translate(143.489 133.736)" fill="#617087" font-size="1" font-family="Montserrat-Thin, Montserrat" font-weight="200"><tspan x="0" y="0" letter-spacing="-0.004em">2</tspan><tspan y="0">000</tspan></text>
    <text id="_2500" data-name="2500" transform="translate(143.489 122.137)" fill="#617087" font-size="2" font-family="Montserrat-Thin, Montserrat" font-weight="200"><tspan x="0" y="0">2500</tspan></text>
    <text id="_3000" data-name="3000" transform="translate(143.489 108.443)" fill="#617087" font-size="1" font-family="Montserrat-Thin, Montserrat" font-weight="200"><tspan x="0" y="0">3000</tspan></text>
    <text id="_01" data-name="01" transform="translate(160.412 171.662)" fill="#617087" font-size="2" font-family="Montserrat-Thin, Montserrat" font-weight="200"><tspan x="0" y="0">01</tspan></text>
    <text id="_02" data-name="02" transform="translate(184.684 171.662)" fill="#617087" font-size="2" font-family="Montserrat-Thin, Montserrat" font-weight="200"><tspan x="0" y="0">02</tspan></text>
    <text id="_03" data-name="03" transform="translate(208.956 170.662)" fill="#617087" font-size="1" font-family="Montserrat-Thin, Montserrat" font-weight="200"><tspan x="0" y="0" letter-spacing="-0.009em">0</tspan><tspan y="0">3</tspan></text>
    <text id="_04_" data-name="04 " transform="translate(233.3 171.662)" fill="#617087" font-size="2" font-family="Montserrat-Thin, Montserrat" font-weight="200"><tspan x="0" y="0">04 </tspan></text>
    <text id="_05" data-name="05" transform="translate(257.5 171.662)" fill="#617087" font-size="2" font-family="Montserrat-Thin, Montserrat" font-weight="200"><tspan x="0" y="0">05</tspan></text>
    <text id="_06" data-name="06" transform="translate(279.839 171.662)" fill="#617087" font-size="2" font-family="Montserrat-Thin, Montserrat" font-weight="200"><tspan x="0" y="0">06</tspan></text>
    <text id="_07" data-name="07" transform="translate(306.044 171.662)" fill="#617087" font-size="2" font-family="Montserrat-Thin, Montserrat" font-weight="200"><tspan x="0" y="0" letter-spacing="-0.009em">0</tspan><tspan y="0">7</tspan></text>
    <text id="_08" data-name="08" transform="translate(330.316 171.662)" fill="#617087" font-size="2" font-family="Montserrat-Thin, Montserrat" font-weight="200"><tspan x="0" y="0">08</tspan></text>
    <g id="Group_24265" data-name="Group 24265">
      <g id="Group_24264" data-name="Group 24264" clip-path="url(#clip-path)">
        <line id="Line_7" data-name="Line 7" y1="1.943" transform="translate(162.344 168.224)" fill="none" stroke="#545f75" stroke-width="0.5"/>
        <line id="Line_8" data-name="Line 8" y1="1.943" transform="translate(186.616 168.224)" fill="none" stroke="#545f75" stroke-width="0.5"/>
        <line id="Line_9" data-name="Line 9" y1="1.943" transform="translate(210.888 168.224)" fill="none" stroke="#545f75" stroke-width="0.5"/>
        <line id="Line_10" data-name="Line 10" y1="1.943" transform="translate(235.16 168.224)" fill="none" stroke="#545f75" stroke-width="0.5"/>
        <line id="Line_11" data-name="Line 11" y1="1.943" transform="translate(259.431 168.224)" fill="none" stroke="#545f75" stroke-width="0.5"/>
        <line id="Line_12" data-name="Line 12" y1="1.943" transform="translate(281.771 168.224)" fill="none" stroke="#545f75" stroke-width="0.5"/>
        <line id="Line_13" data-name="Line 13" y1="1.943" transform="translate(307.975 168.224)" fill="none" stroke="#545f75" stroke-width="0.5"/>
        <line id="Line_14" data-name="Line 14" y1="1.943" transform="translate(332.246 168.224)" fill="none" stroke="#545f75" stroke-width="0.5"/>
        <line id="Line_15" data-name="Line 15" x2="183.054" transform="translate(156.405 122.625)" fill="none" stroke="#c6c9cc" stroke-width="0.5"/>
        <line id="Line_16" data-name="Line 16" x2="183.054" transform="translate(156.405 135.225)" fill="none" stroke="#c6c9cc" stroke-width="0.5"/>
        <line id="Line_17" data-name="Line 17" x2="183.054" transform="translate(156.405 109.932)" fill="none" stroke="#c6c9cc" stroke-width="0.5"/>
        <line id="Line_18" data-name="Line 18" x2="183.054" transform="translate(156.405 147.824)" fill="none" stroke="#c6c9cc" stroke-width="0.5"/>
        <line id="Line_19" data-name="Line 19" x2="183.054" transform="translate(156.405 160.424)" fill="none" stroke="#c6c9cc" stroke-width="0.5"/>
        <path id="Path_70215" data-name="Path 70215" d="M273.315,153.056a1.276,1.276,0,1,1,1.25-1.275,1.264,1.264,0,0,1-1.25,1.275" transform="translate(-39.69 -21.957)" fill="#fff"/>
        <path id="Path_70216" data-name="Path 70216" d="M187.821,184.7h-5.685l.345-19.552h5.685Z" transform="translate(-26.571 -24.093)" fill="#1ddba9"/>
        <path id="Path_70217" data-name="Path 70217" d="M197.041,182.8h-5.685l.345-30.684h5.685Z" transform="translate(-27.916 -22.191)" fill="#4a3dff"/>
        <rect id="Rectangle_8563" data-name="Rectangle 8563" width="5.802" height="20.803" transform="translate(179.869 139.805)" fill="#1ddba9"/>
        <rect id="Rectangle_8564" data-name="Rectangle 8564" width="5.802" height="29.655" transform="translate(187.908 130.953)" fill="#4a3dff"/>
        <rect id="Rectangle_8565" data-name="Rectangle 8565" width="5.685" height="33.978" transform="translate(204.281 126.63)" fill="#1ddba9"/>
        <rect id="Rectangle_8566" data-name="Rectangle 8566" width="5.685" height="40.922" transform="translate(212.156 119.685)" fill="#4a3dff"/>
        <rect id="Rectangle_8567" data-name="Rectangle 8567" width="5.685" height="45.093" transform="translate(228.552 115.515)" fill="#1ddba9"/>
        <rect id="Rectangle_8568" data-name="Rectangle 8568" width="5.685" height="49.86" transform="translate(236.427 110.748)" fill="#4a3dff"/>
        <rect id="Rectangle_8569" data-name="Rectangle 8569" width="5.685" height="23.438" transform="translate(252.824 137.17)" fill="#1ddba9"/>
        <rect id="Rectangle_8570" data-name="Rectangle 8570" width="5.685" height="29.037" transform="translate(260.699 131.57)" fill="#4a3dff"/>
        <rect id="Rectangle_8571" data-name="Rectangle 8571" width="5.685" height="42.865" transform="translate(275.163 117.742)" fill="#1ddba9"/>
        <rect id="Rectangle_8572" data-name="Rectangle 8572" width="5.685" height="29.655" transform="translate(283.038 130.953)" fill="#4a3dff"/>
        <rect id="Rectangle_8573" data-name="Rectangle 8573" width="5.685" height="50.248" transform="translate(301.367 110.359)" fill="#1ddba9"/>
        <rect id="Rectangle_8574" data-name="Rectangle 8574" width="5.685" height="44.681" transform="translate(309.242 115.926)" fill="#4a3dff"/>
        <rect id="Rectangle_8575" data-name="Rectangle 8575" width="5.685" height="31.597" transform="translate(325.639 129.011)" fill="#1ddba9"/>
        <rect id="Rectangle_8576" data-name="Rectangle 8576" width="5.685" height="49.083" transform="translate(333.514 111.525)" fill="#4a3dff"/>
      </g>
    </g>
    <text id="Average_Charts" data-name="Average Charts" transform="translate(142.327 85.994)" fill="#617087" font-size="3" font-family="Montserrat-Thin, Montserrat" font-weight="200"><tspan x="0" y="0" letter-spacing="-0.024em">A</tspan><tspan y="0" letter-spacing="-0.014em">v</tspan><tspan y="0">e</tspan><tspan y="0" letter-spacing="-0.034em">r</tspan><tspan y="0">age Cha</tspan><tspan y="0" letter-spacing="0.014em">r</tspan><tspan y="0">ts</tspan></text>
    <g id="Group_24267" data-name="Group 24267">
      <g id="Group_24266" data-name="Group 24266" clip-path="url(#clip-path)">
        <path id="Path_70218" data-name="Path 70218" d="M369.384,357.427H157.7A6.424,6.424,0,0,1,151.277,351V233.43a6.424,6.424,0,0,1,6.424-6.424H369.384a6.424,6.424,0,0,1,6.425,6.424V351a6.425,6.425,0,0,1-6.425,6.425" transform="translate(-22.069 -33.117)" fill="#fff"/>
        <path id="Path_70219" data-name="Path 70219" d="M395.016,341.388c.219-.018.515-.214.7-.036a1.46,1.46,0,0,1-.7.773c-.153.067-.354.043-.514.11-.307.126-.468.444-.735.663s-.588.381-.847.552-.613.5-.92.256c.024-.43.482-.425.59-.773,0-.257-.23-.286-.221-.552.51-.447,1.312-.769,1.433-1.692.056-.409-.277-1.287.221-1.325.587-.045.255.589.3.919.015.134.152.225.219.406.122.322.112.616.479.7" transform="translate(-57.187 -49.508)" fill="#ededed"/>
        <path id="Path_70220" data-name="Path 70220" d="M390.14,344.263c-.2.614-1.1.936-1.693,1.325-.182.12-.33.392-.553.477-.286.114-.612.078-.918.221a11.926,11.926,0,0,0-1.288.957,3.973,3.973,0,0,1-1.546.7c-.545.042-1.55-.308-.883-.809a9.722,9.722,0,0,1,1.215-.625A27.11,27.11,0,0,0,387.859,345c.49-.356.934-.735,1.4-1.03.231-.149.624.25.882.294" transform="translate(-55.88 -50.175)" fill="#ededed"/>
        <path id="Path_70221" data-name="Path 70221" d="M383.61,315.5c.118-.032.114.057.185.073a.833.833,0,0,1-1.031.811c-.3-.027-.824-.252-.846-.4-.075-.529,1.355-.2,1.692-.479" transform="translate(-55.716 -46.025)" fill="#ededed"/>
        <path id="Path_70222" data-name="Path 70222" d="M379.9,317.428c.266.075,1.448.911,1.067,1.287-.207.207-.472-.11-.809-.184-.45-.1-.8.021-1.1-.22-.35-.274-.435-.872-.811-1.215a1.643,1.643,0,0,0-1.029-.368c-.584.063-.579.733-1.1,1.03-.5-.054-.8.092-1.179-.038-.4-.135-.6-.651-.957-.7s-1.258.6-1.4.036c-.112-.458.618-.609.662-.92a1.474,1.474,0,0,0-.442-.957c-.154-.139-.371-.15-.552-.257s-.334-.328-.552-.442c-.77-.4-1.947-.238-2.245-.883-.052-.114.029-.24-.037-.4-.079-.2-.376-.267-.478-.442-.261-.449-.078-1.112.367-1.179a1.663,1.663,0,0,1,1.289.737c.049.157-.034.334,0,.515.041.218.366.749.662.772.381.032.606-.557.957-.772a1.811,1.811,0,0,1,.957-.295c.313.024.523.271.881.4.258.1.578.135.884.221.266.075.5.232.772.331a5.9,5.9,0,0,1,2.391,1.067c.13.155.126.383.3.553s1.007.31,1.03.663c.019.267-.351.283-.367.551-.034.536.717.5.846,1.1" transform="translate(-53.804 -45.454)" fill="#ededed"/>
        <path id="Path_70223" data-name="Path 70223" d="M372.284,344.2a2.348,2.348,0,0,1-.92,1.288c-.332.232-1.388.7-1.508.038a4.362,4.362,0,0,1,.294-1.215c.261-.516.538-.179.957-.111s.834-.26,1.178,0" transform="translate(-53.956 -50.189)" fill="#ededed"/>
        <path id="Path_70224" data-name="Path 70224" d="M368.346,281.141c.149.442.252.876.369,1.288-.407.5-1.209.318-1.8.588-.28.127-.357.592-.626.662-.217.057-.384-.187-.589-.184-.527.01-.787.885-1.436.663-.369.221.015,1.068-.441,1.139-.325.051-.5-.367-.7-.625-.237-.312-.578-.483-.587-.735s.527-.7.7-.883a2.628,2.628,0,0,1,.883-.7c.49-.108.989.047,1.362-.109.323-.137.342-.645.515-.773.147-.109.316-.079.442-.147a1.337,1.337,0,0,0,.516-1.473c-.123-.41-.8-.86-.368-1.361a2.026,2.026,0,0,1,1.619,1.361c.041.254-.1.507-.074.772.012.153.153.316.22.516" transform="translate(-52.889 -40.628)" fill="#ededed"/>
        <path id="Path_70225" data-name="Path 70225" d="M369.015,276.677c-.083.188-.249.149-.4.257s-.329.443-.515.479c-.3.056-.628-.29-.921-.22-.346.081-.143.346-.257.661-.3-.064-.8-.4-.811-.735-.008-.211.266-.342.331-.588.11-.421-.173-.633-.331-1.03-.01-.06.036-.063.037-.111.36-.075,1.065.6,1.877.736.524.086.962.04.993.552" transform="translate(-53.41 -40.174)" fill="#ededed"/>
        <path id="Path_70226" data-name="Path 70226" d="M367.825,320.6c.038.306-.5.27-.552.073.01-.237.486-.311.552-.073" transform="translate(-53.58 -46.75)" fill="#ededed"/>
        <path id="Path_70227" data-name="Path 70227" d="M364.9,273.279c.365.192,1.247.629.625,1.03-.377-.139-.768-.615-.625-1.03" transform="translate(-53.229 -39.868)" fill="#ededed"/>
        <path id="Path_70228" data-name="Path 70228" d="M362.8,318.636c.421-.23.881-.734,1.619-.479-.161.458-.717.448-1.067.662s-.655.583-1.1.626a.338.338,0,0,0-.148-.148c0-.411.408-.5.7-.661" transform="translate(-52.826 -46.404)" fill="#ededed"/>
        <path id="Path_70229" data-name="Path 70229" d="M361.456,310.6c.432,0,.839-.133,1.139.037-.056.92-1.483.22-2.427.368-.2.031-.26.187-.479.11a.793.793,0,0,1,.7-.662c.27-.028.673.146,1.069.147" transform="translate(-52.474 -45.291)" fill="#ededed"/>
        <path id="Path_70230" data-name="Path 70230" d="M361.685,311.946c.042.509-.653.566-.846.958a17.241,17.241,0,0,0,.773,1.544c-.015.28.056.647-.111.773-.74.142-1.138-1.189-1.435-1.655-.566.106-.05,1.917-.809,1.693-.372-.111.005-.629-.074-1.03-.068-.353-.414-.425-.442-.7-.02-.227.25-.467.331-.7.117-.334.043-.976.442-.993.2-.009.46.414.588.442.44.094.962-.448,1.583-.332" transform="translate(-52.335 -45.493)" fill="#ededed"/>
        <path id="Path_70231" data-name="Path 70231" d="M360.431,318.335c-.136.279-.892.145-.956-.11.129-.29.893-.2.956.11" transform="translate(-52.442 -46.399)" fill="#ededed"/>
        <path id="Path_70232" data-name="Path 70232" d="M359.637,319.345a.917.917,0,0,1-.146.148c-.279-.089-.577-.157-.663-.442.207-.3.8-.052.809.294" transform="translate(-52.348 -46.525)" fill="#ededed"/>
        <path id="Path_70233" data-name="Path 70233" d="M358.285,318.288c-.187.265-.834-.021-1.067.257-.383-.009-.768-.014-.846-.331.11-.27.46-.085.736-.11.444-.04,1.059-.353,1.177.184" transform="translate(-51.99 -46.388)" fill="#ededed"/>
        <path id="Path_70234" data-name="Path 70234" d="M352.375,332.7a7.768,7.768,0,0,0-.258-.956c-.019-.125.018-.285,0-.442-.025-.228-.137-.418-.111-.553.051-.243.336-.269.407-.477.115-.343-.142-.4-.149-.81,0-.291.221-.432.369-.81.068-.174.071-.5.146-.625.1-.157.5-.29.663-.367.565-.277,1.016-.791,1.584-.884.143-.023.338.018.442,0,.333-.058.753-.337,1.214-.441a4.2,4.2,0,0,0,1.177-.259,3.058,3.058,0,0,0,1.03-1.1c.168-.4.119-.745.442-.882.159-.067.313.005.478-.037a2.265,2.265,0,0,0,.663-.331c.256-.23.3-.606.588-.846a5.129,5.129,0,0,1,.846-.551,1.44,1.44,0,0,1,.588-.148c.519.044.761.768,1.326.625.2-.051.406-.479.589-.736.266-.375.459-.881.919-.993.372-.091.789.143.993-.184.047-.232-.173-.371,0-.516.43.027,1.155.606,1.8.625.349.011,1-.381,1.068.148.031.234-.262.423-.331.663-.049.169.073.26-.037.442-.3.118-.617.18-.625.514-.011.42.594.617.956.847.249.157.456.4.589.478.114.067.293.1.368.147.238.155.407.507.737.515.373.009.746-.467.956-.921a7.6,7.6,0,0,0,.367-1.729c.037-.186.169-.367.221-.552.142-.5.334-1.183.771-1.361a2.927,2.927,0,0,1,.517,2.135c.294.223.811.149.882.662.025.178-.088.4-.073.588.025.31.255.582.3.846.073.49-.082.894.146,1.251.287.45.85.436,1.215.921a1.711,1.711,0,0,0,.184.661c.034.113,0,.3.037.369.119.246.436.27.553.477.056.1.041.295.11.478a4.345,4.345,0,0,0,.515.736,3.327,3.327,0,0,1,.478.736c.073.366-.192.618-.258.92a7.681,7.681,0,0,1-.146,1.214,13.451,13.451,0,0,1-.921,1.435,4.9,4.9,0,0,1-1.031,1.288c-.232.186-.508.293-.735.479a10.743,10.743,0,0,0-.957.993c-.331.35-.733.618-.994.919-.378.437-.565,1.144-1.214,1.215a3.9,3.9,0,0,0-1.068.148c-.545.216-.905.615-1.176.625s-.548-.333-.811-.368c-.294-.038-.525.224-.956.22-.176,0-.264-.1-.515-.184-.526-.167-1.1-.16-1.177-.735-.042-.313.2-.455.183-.737s-.291-.351-.4-.588a.611.611,0,0,0-.185-.737.745.745,0,0,1,.148-.515,5.029,5.029,0,0,0-.736.3c-.268.161-.461.533-.771.477-.291-.1-.067-.392-.111-.625a3.229,3.229,0,0,0-.626-1.068,5.274,5.274,0,0,0-1.25-.479c-1.138-.178-1.862.43-2.76.517-.231.021-.482-.038-.7,0a4.991,4.991,0,0,0-2.024,1.1,11.627,11.627,0,0,0-2.318.074c-.78.227-1.227.877-2.427.7-.237-.2-.66-.306-.662-.661,0-.281.415-.462.552-.663a2.583,2.583,0,0,0,.4-1.03c.008-.244-.165-.537-.148-.846.015-.241.15-.5.148-.737" transform="translate(-51.267 -46.712)" fill="#ededed"/>
        <path id="Path_70235" data-name="Path 70235" d="M351.29,316.779c.2-.028.35-.177.552-.183.429-.017.853.316,1.361.256.11.119.035.217.038.406.43.23,1.137.188,1.361.624-.323.342-.8.1-1.214.037-.373-.053-.771-.027-1.177-.073-.515-.06-.981-.344-1.471-.4-.3-.038-.6.043-.884,0-.331-.051-1.565-.517-1.582-.846s.555-.435,1.066-.369c.662.086,1.1.67,1.952.552" transform="translate(-50.808 -46.13)" fill="#ededed"/>
        <path id="Path_70236" data-name="Path 70236" d="M352.679,312.7c-.278-.079-.539-.035-.66-.111-.253-.155-.215-.6-.3-.846s-.386-.389-.55-.735c-.24-.5-.343-1.625.293-1.73.256-.043.52.155.7.111.355-.089.293-.547.589-.737.164-.106.466-.061.7-.147a1.586,1.586,0,0,0,.589-.515c.155-.184.275-.493.478-.624.229-.151.441-.155.625-.3.483-.368.5-.881.883-1.325.327-.375.843.361.883.663.183.234.543.291.7.552-.216.647-.828.7-.7,1.619a2.635,2.635,0,0,0,.221.627c.105.215.417.448.4.588-.024.275-.577.263-.7.551-.111.268.009.285-.036.7-.155.3-.571.372-.7.736-.155.438.023,1-.331,1.326-.245-.013-.513.212-.809.183-.322-.029-.63-.471-1.142-.478-.2,0-.426.125-.625.111-.157-.012-.284-.157-.516-.22" transform="translate(-51.204 -44.589)" fill="#ededed"/>
        <path id="Path_70237" data-name="Path 70237" d="M350.06,312.946a.727.727,0,0,1,0,1.453.727.727,0,0,1,0-1.453" transform="translate(-50.966 -45.654)" fill="#ededed"/>
        <path id="Path_70238" data-name="Path 70238" d="M347.355,311.9a1.526,1.526,0,0,1,.515.737c-.012.259-.4.245-.515.588-.173.53.078,1.128-.22,1.4a1.673,1.673,0,0,1-.735.073,10.855,10.855,0,0,1-1.767-1.656,4.075,4.075,0,0,1-.588-.663c-.191-.351-.26-.738-.477-1.067-.194-.289-.547-.495-.737-.809-.154-.259-.168-.6-.33-.846-.153-.231-.409-.331-.59-.516-.117-.12-.185-.309-.294-.442-.462-.553-1.352-.842-1.4-1.655.189-.216.383.08.735.147.228.044.5-.018.662.037.335.113.565.635.92.92.2.16.458.271.661.442.219.183.378.445.553.552.24.147.571.243.883.442.426.271,1.186.552,1.288,1.1.026.137-.064.369-.037.477.05.193.3.278.442.442.181.2.218.512.478.553.259.073.271-.294.552-.258" transform="translate(-49.633 -44.782)" fill="#ededed"/>
        <path id="Path_70239" data-name="Path 70239" d="M328.191,303.694c.317.1,1.374,1.389,1.067,2.1a.833.833,0,0,1-.809.4c-.729-.115-.59-1.736-.368-2.392a.186.186,0,0,1,.11-.111" transform="translate(-47.836 -44.305)" fill="#ededed"/>
        <path id="Path_70240" data-name="Path 70240" d="M299.477,324.891a1.672,1.672,0,0,1,.478-.958c.339-.252.8-.225,1.141-.4a2.88,2.88,0,0,0,.883-.663c.177-.23.186-.491.331-.663.1-.118.321-.149.441-.293s.084-.372.258-.515c.511-.219.658.717.737,1.361a4.47,4.47,0,0,1,.108.515c-.053.293-.376.354-.478.553a5.921,5.921,0,0,1-.626,2.169c-.244.573-.387,1.2-.589,1.693-.073.179-.227.319-.294.477-.266.627-.363,1.61-.847,1.877a3.854,3.854,0,0,1-1.03.257,1.047,1.047,0,0,1-.957-.735A5.261,5.261,0,0,1,299,328.9a3.108,3.108,0,0,1-.184-.883c.082-.749.811-1.113.846-1.73.027-.465-.235-.927-.184-1.4" transform="translate(-43.592 -46.882)" fill="#ededed"/>
        <path id="Path_70241" data-name="Path 70241" d="M274.924,262.465c.043.617-.943.54-1.068,1.068-.056.238.115.558.074.772-.075.387-.448.274-.92.478-.241.1-.474.487-.736.515-.242.026-.39-.142-.552-.109-.242.045-.161.341-.516.4-.282.049-.776-.253-.809.11-.021.233.444.36.736.331.231-.022.4-.181.625-.184.436,0,.719.324.992.331.632.018,1.252-.583,1.915-.515.3.03.477.242.7.221.354-.034.657-.443.92-.589-.112-.62.01-1.437.588-1.472.4-.024,1,.68,1.067,0,.032-.3-.313-.557-.552-.553-.212.005-.489.419-.663.074,0-.337.379-.248.589-.331.156-.062.267-.232.442-.295.875-.307,2.088.3,2.428-.442-.776-.662-2.1.242-2.98.184a1.208,1.208,0,0,1-.993-.663c-.038-.114-.007-.266-.038-.477-.033-.235-.155-.482-.146-.626.037-.665,1.691-.79,1.691-1.619a1.387,1.387,0,0,0-1.545.073c-.108.117-.1.354-.257.589-.33.5-1.4.563-1.73,1.178a1.318,1.318,0,0,0-.148.735c.088.348.859.443.884.81m-8.757,35.986a5.491,5.491,0,0,0-2.871.588,4.168,4.168,0,0,1-1.215.479,7.117,7.117,0,0,1-1.029-.22,5.662,5.662,0,0,0-1.436.073c-.423.075-.8.378-1.177.4-.714.054-1.392-.643-1.84-.993-.274-.214-.553-.389-.81-.589-.275-.215-.632-.345-.846-.552-.29-.28-.29-.768-.442-1.141-.179-.438-.725-.761-1.141-1.177-.311-.311-1.026-.776-1.1-1.177-.039-.205.087-.441.073-.663-.02-.322-.262-.506-.257-.736.007-.323.388-.573.478-.846.046-.139.024-.337.073-.515.1-.373.351-.594.295-1.14-.022-.218-.208-.417-.22-.7-.008-.194.127-.3.11-.479-.028-.313-.436-.375-.478-.735s.356-.681.588-1.1c.106-.19.163-.48.258-.625.206-.313.542-.465.7-.773.115-.228.153-.565.257-.736.136-.219.406-.337.663-.625.209-.235.295-.519.442-.625a3.608,3.608,0,0,1,.663-.257,2.907,2.907,0,0,0,1.508-1.362,1.528,1.528,0,0,1,.295-1.25,2.29,2.29,0,0,1,.773-.957c.46-.26.893-.284,1.214-.772a2.293,2.293,0,0,0,.4-.92,1.021,1.021,0,0,0-.7-.884c-.332-.052-.844.253-1.03-.109-.06-.116.022-.388,0-.516-.043-.241-.249-.411-.257-.588-.018-.346.339-.705.441-1.1a4.731,4.731,0,0,0-.038-1.582c.515-.811,1.658-.409,2.8-.332.171.012.367-.041.552-.036.676.015,1.208.219,1.435-.368a3.946,3.946,0,0,0,.111-1.251,2.856,2.856,0,0,0-.774-1.03c-.365-.232-.894-.131-1.1-.552.17-.727.984-.122,1.472-.295.249-.088.221-.519.442-.589.15-.047.343.152.552.148a3.762,3.762,0,0,0,.993-.442c.235-.158.307-.489.515-.625a3.048,3.048,0,0,1,.478-.147,2.757,2.757,0,0,0,.92-.662c.3-.365.441-.816.81-.883.493-.09,1.609.1,1.693-.442.079-.513-.453-.917-.258-1.472.155-.437.548-.36,1.1-.625.268.19.19.735.22,1.068.342,0,1.038-.1,1.1-.4.083-.379-.5-.765-.625-.993-.138-.249-.167-.684-.442-.736-.56-.108-1.1.772-1.8.772a1.228,1.228,0,0,1-1.067-.7,2.992,2.992,0,0,1-.038-.589,2.639,2.639,0,0,1-.147-1.029c.282-.483.931-.561,1.4-.811.177-.094.319-.294.515-.367.33-.122.817,0,1.14-.185.205-.116.147-.317.295-.552.092-.148.317-.234.442-.4.086-.118.1-.3.184-.406.32-.4.9-.544,1.14-.956.105-.182-.181-.25-.109-.516.119-.256.577-.067.846-.11.366-.057.7-.5,1.1-.589a8.641,8.641,0,0,0,1.252-.184c.231-.09.444-.3.662-.332.078-.011.295.042.4.038.141-.006.292-.092.479-.111.27-.026.606.067.957.073a4.371,4.371,0,0,1,1.619.038c.254.11.225.4.552.515.165.059.382-.024.626,0,.36.034.736.283,1.214.331.17.016.346-.021.515,0a8.929,8.929,0,0,1,1.619.515c.431.145,1.345.326,1.361.735.02.484-.794.625-1.141.625-.579,0-1.345-.338-1.949-.147a1.537,1.537,0,0,0,1.729,1.361c.073-.391-.465-.173-.4-.552.367-.277.806.186,1.325.11.2-.055.168-.347.22-.552a1.731,1.731,0,0,1,1.656-.368.326.326,0,0,1,.148-.146c.044-.4-.442-.616-.185-1,.128-.261.815-.171.92.038.053.249-.17.222-.148.442a.594.594,0,0,0,.589.331c.361-.02.433-.342.773-.515.138-.07.339-.078.515-.148.208-.082.384-.249.552-.294.123-.032.307,0,.478-.038.218-.046.448-.221.626-.22.222,0,.38.257.662.295.154.021.328-.087.552-.11.181-.02.367.021.515,0,.351-.051.593-.237.884-.221.2.011.557.288.7.148.237-.237-.318-.412-.146-.626.564.043,1.163.029,1.73.11a24.128,24.128,0,0,0,2.391.552c-.072-.511-.658-.364-.92-.588a2.144,2.144,0,0,1-.4-.774,4.46,4.46,0,0,1,.515-.882,1.47,1.47,0,0,1,1.692.109c.208.283.139.708.442.7.26-.007.4-.647.7-.662.249-.014.376.41.625.4.3-.006.517-.574.921-.589.217-.009.29.112.625.147.23-.148-.077-.342.037-.552.412-.3,1.351-.072,1.877-.257.146-.175-.187-.3-.037-.479a5.5,5.5,0,0,1,1.988-.477c.472-.08.917-.408,1.287-.442.386-.034.755.227,1.1.221a2.059,2.059,0,0,0,.663-.146c.207-.081.348-.282.553-.332a9.911,9.911,0,0,1,1.1,0,5.117,5.117,0,0,1,1.029-.147c.267.043.483.328.736.368.775.12,1.575-.116,2.28.073.126.034.254.166.406.221.472.173.8.119.883.7.372.132.59.473,1.03.589a3.767,3.767,0,0,0,.92-.038,10.35,10.35,0,0,1,1.361.073c.211.032.385.188.589.221.149.024.346-.015.515,0,.231.021.437.116.625.11.386-.012.678-.355.993-.4a2.614,2.614,0,0,1,.552.073,16.548,16.548,0,0,1,1.84.038,3.628,3.628,0,0,1,1.031.588c.216.166.348.429.552.552a2.021,2.021,0,0,0,.883.295c.236-.037.246-.3.478-.4.73-.162,2.025.232,2.613-.038.227-.1.183-.345.368-.478,1.1-.054,2.2.046,3.238.073a8.461,8.461,0,0,1,1.068-.036c.364.063.63.428.992.552.242.082.667.039,1.03.11.244.048.444.195.625.22a5.059,5.059,0,0,0,1.142-.073,6.457,6.457,0,0,1,2.76.221c.442.178.629.536,1.1.588.68.075,1.733-.056,2.429,0a4.34,4.34,0,0,0,.441.073c.233-.017.376-.215.663-.22.364-.009.944.568,1.472.478.228-.154-.183-.369.035-.515.208-.173.491,0,.811,0,.174,0,.388-.089.553-.073.4.035.788.4,1.287.514a4.585,4.585,0,0,0,1.436.074,3.976,3.976,0,0,1,.993-.11,4.987,4.987,0,0,1,.477.184c.157.04.311,0,.442.037s.244.149.369.184c.683.2,1.595.293,2.318.516a5.9,5.9,0,0,0,1.215.4c.174.006.329-.075.552-.073,1.111.008,2.419.471,2.317,1.509-1.3.285-2.39-.9-3.754-.552a.587.587,0,0,0-.441.514c.051.641,1.666.588,1.8,1.215-.265.2-.553.011-.772.038a2.687,2.687,0,0,0-1.1.588c-.249.234-.467.831-.735.884-.329.064-.83-.325-1.325-.221-.181.038-.355.264-.515.295-.406.077-.922-.221-1.176.257.133.337.052.8.331.993.179.123.4.028.625.111.259.1.4.412.624.589.183.144.378.149.48.331.023.271-.108.3-.074.478.057.308.54.378.552.589.016.266-.3.208-.367.478-.023.171.2.216.22.442.015.15-.122.307-.11.478.016.245.209.408.184.625a.571.571,0,0,1-.332.4c-.7-.452-1.338-1.075-2.1-1.655-.776-.6-2.006-1.326-2.134-2.576,0-.191.406-.342.478-.625.029-.116-.046-.282-.037-.442.026-.432.383-.847.369-1.1a1.553,1.553,0,0,0-.811-.884c-.214.113,0,.336-.037.516a.729.729,0,0,1-.552.515c-.7.06-.775-.9-1.877-.626a.932.932,0,0,0-.588,1.031c.031.161.473.334.442.552s-1,.274-1.215.258c-.594-.048-.9-.492-1.434-.479-.263.007-.494.22-.7.258-1.159.211-2.879-.571-3.274.441-.057.143-.026.331-.074.479a5.159,5.159,0,0,1-.295.515c-.045.114-.038.337-.111.515-.067.161-.763.789-.147.957.147.038.216-.063.406-.038.316.043.841.55,1.213.552.222,0,.53-.249.7-.257a1.716,1.716,0,0,1,.846.331,2.8,2.8,0,0,0,.81.368c.348-.017.182-.258.515-.368.636.189.935.863,1.545,1.4.221.193.548.36.846.625.167.149.678.547.7.735s-.143.251-.185.406c-.06.224.08.388-.073.552-.587-.218-.719-.8-1.141-1.288-.156-.183-.313-.4-.551-.663-.108-.118-.5-.532-.737-.441-.462.175.254.876.368,1.03a2.577,2.577,0,0,1,.59,1.1c.014.22-.143.618-.148.993,0,.254.064.484.037.7a4.686,4.686,0,0,1-.258.7c-.086.269-.106.592-.183.772a1.39,1.39,0,0,1-.958.735c-.306.014-.436-.235-.735-.22-.453.02-.536.438-.809.772.023.362.137.487.073.735-.1.39-.642.459-.625.846.015.36.5.43.735.589a6.188,6.188,0,0,1,1.215,1.1,2.063,2.063,0,0,1,.479,1.03c-.028.364-1.076.87-1.51.735-.412-.127-.271-.52-.367-.882-.075-.278-.294-.4-.4-.625-.059-.12-.032-.307-.112-.442-.222-.374-.609-.17-1.068-.4-.3-.155-.213-.478-.331-.773-.158-.4-.825-.583-1.361-.477-.394.075-.517.407-.883.477-.541-.32.11-1.109-.552-1.178-.508-.053-.845.729-1.141.957-.2.153-.565.184-.589.4-.044.406.429.324.808.478.345.142.385.532.7.552.263.018.438-.271.7-.294a1.826,1.826,0,0,1,1.1.331c-.184.446-1.174.773-1.178,1.361,0,.341.4.4.7.625.256.19.594.729.956,1.1.156.162.409.269.48.368.17.243.143.54.33.7.032.2-.091.251-.073.442.091.265.5.214.589.478-.075.635.189,1.233-.331,1.472a4.189,4.189,0,0,1-1.288,2.649,7.481,7.481,0,0,1-2.466.993c-.218.071-.393.3-.588.368-.489.167-1.361.065-1.4.662-.02.295.374.472.4.773a.951.951,0,0,1-.663.957c-.214.023-.675-.126-.7-.516-.029-.438.544-.618.589-.882a.853.853,0,0,0-.957-.883c-.486.037-1.591,1.012-1.619,1.545-.021.4.79,1.229,1.067,1.473,1.033.91,2.13,1.456,1.949,3.68-.258.563-.917.682-1.434.993-.394.236-.589.968-1.252,1.03-.266-.09-.11-.506-.184-.7-.1-.264-.628-.393-.957-.662-.269-.222-.382-.57-.588-.774a3.877,3.877,0,0,0-.957-.478c-.2-.108-.352-.487-.552-.477-.325.013-.212.325-.294.846s-.455.905-.331,1.509c.052.247.36.447.514.7.255.417.291.9.553,1.141.173.157.466.191.662.331a4.571,4.571,0,0,1,1.215,1.215c.16.388.006.844.111,1.251.122.471.739.809.368,1.288a2.974,2.974,0,0,1-.957-.478,2.94,2.94,0,0,1-1.067-1.1,3.331,3.331,0,0,1-.295-.441c-.128-.331-.1-.7-.22-1.1a3.432,3.432,0,0,0-.81-1.178c-.259-.243-.717-.385-.736-.736-.026-.494.167-1.074.148-1.655,0-.126-.09-.252-.109-.4-.039-.282.027-.628-.038-.883a4.155,4.155,0,0,0-.331-.662,6.94,6.94,0,0,1-.294-.7c-.149-.425-.317-1.246-.663-1.288-.369-.044-.733.691-1.214.7a.669.669,0,0,1-.625-.442c-.047-.225.115-.454.11-.7-.014-.493-.365-.683-.626-1.03-.106-.14-.134-.337-.222-.442-.167-.2-.486-.311-.7-.515a2.9,2.9,0,0,1-.515-.662c-.142-.288-.188-.662-.4-.7s-.448.26-.663.331a6.064,6.064,0,0,1-.993.184c-.739.051-1.338-.145-1.25.736-.115.4-.534.4-.811.589a10.111,10.111,0,0,0-.993,1.1c-.187.188-.457.3-.625.478-.14.145-.184.378-.331.516-.393.371-.981.4-1.25.92-.015.612.289,1.074.22,1.654-.032.266-.23.5-.258.774-.023.234.1.486.038.735-.032.134-.181.2-.3.368-.1.147-.143.342-.219.442-.125.159-.328.269-.443.4-.187.221-.226.379-.4.4-.806.116-1.005-1.418-1.361-2.061-.165-.295-.5-.561-.663-.919a13.08,13.08,0,0,0-.516-1.4,9.184,9.184,0,0,1-.7-1.215c-.131-.35-.244-.788-.367-1.177a6.312,6.312,0,0,1-.295-1.25c-.031-.477.091-.772-.3-.957-.354.084-.512.442-.919.442s-1.447-.68-1.139-1.288c-.258-.364-.905-.564-1.4-.993-.283-.246-.538-.833-1.03-.882a2.573,2.573,0,0,0-.442.073c-.311.026-.863-.028-1.215,0a7.875,7.875,0,0,1-1.545.073c-.36-.039-.806-.109-1.177-.147a2.743,2.743,0,0,1-1.361-.406c-.163-.15-.229-.632-.517-.7-.341-.079-.529.185-.846.257a2.137,2.137,0,0,1-1.693-.441c-.323-.214-.618-.326-.846-.478-.559-.375-.659-1.5-1.509-1.509-.295,0-.765.182-.809.516-.029.234.279.669.4.846.413.582,1.171.8,1.4,1.581.153.06.463-.133.625.038.143.336,0,.957.331,1.1,1.529.253,1.966-.585,2.649-1.177.4.259.266.486.4.772a1.217,1.217,0,0,0,.625.626c.184.071.422.005.7.109.173.067.9.753.921,1a3.5,3.5,0,0,1-.627,1.139c-.146.183-.372.278-.442.442-.052.127-.035.4-.073.479-.067.146-.4.338-.589.514a7.276,7.276,0,0,1-.625.478c-.232.179-.377.424-.625.516-.489.18-.955.1-1.361.368-.266.173-.267.563-.589.772-.337.219-.912.22-1.4.442-.313.142-.5.418-.771.515-.11.038-.249.005-.369.037-.244.062-.47.236-.7.294-.181.046-.373.023-.552.074-.566.164-1.086.74-1.655.4-.269-.619-.313-1.4-.626-1.95-.16-.281-.473-.367-.588-.662-.016-.237.269-.172.293-.368-.093-.4-.469-.583-.7-.921-.112-.164-.164-.4-.294-.589-.439-.638-1.3-.969-1.472-1.766-.045-.216.008-.386-.036-.552a2.1,2.1,0,0,0-.442-.772c-.14-.163-.427-.275-.588-.516-.107-.159-.13-.383-.221-.552a6.084,6.084,0,0,0-1.472-1.766c-.3.044-.623.064-.772.258a5.662,5.662,0,0,0,.625,1.288,7.386,7.386,0,0,1,.7,1.178c.057.153.047.354.11.514.231.584.959.764,1.1,1.436.1.451-.021.764.111,1.214.126.433.765.688,1.03,1.1a8.514,8.514,0,0,1,.368,1.141c.22.472.836.676,1.288.993a10.952,10.952,0,0,1,1.029,1.031c.2.178.468.211.516.4.062.249-.105.333-.148.551.283.295.558.838,1.03.884.195.018.44-.178.736-.221.149-.021.317.023.442,0,.2-.035.366-.21.589-.258.376-.08.811-.048,1.287-.11.45-.059.759-.438,1.1-.331.378.415.107.887,0,1.288-.038.141-.038.287-.073.4a19.534,19.534,0,0,1-.957,1.729c-.074.181-.061.4-.146.589a7.412,7.412,0,0,1-1.29,1.656,7.113,7.113,0,0,1-.735.735c-.264.218-.587.336-.884.553a7.968,7.968,0,0,0-1.618,1.619c-.161.22-.237.476-.4.663-.24.267-.61.4-.809.662a7.5,7.5,0,0,0-.442.957c-.2.42-.625.7-.552,1.287.027.223.227.362.295.589a2.487,2.487,0,0,1-.038,1.14,3.646,3.646,0,0,0,.736,1.4c.045.745-.062,1.467,0,2.1.038.4.195.7.037,1.068a3.456,3.456,0,0,1-.993,1.1c-.348.224-.879.283-1.251.553-.26.188-.474.517-.736.737-.434.361-1.028.7-1.067,1.067a2.638,2.638,0,0,0,.22.735,3.193,3.193,0,0,1,.037,1.913c-.267.637-1.615.5-1.765,1.178-.046.2.09.367.073.589a4.93,4.93,0,0,1-.368,1.066c-.162.3-.532.442-.772.7-.3.326-.453.8-.773,1.139a11.017,11.017,0,0,1-1.582,1.361,4.615,4.615,0,0,1-2.134.773c-.447.032-.926-.105-1.4-.036-.173.024-.36.183-.589.22-.132.021-.268-.023-.4,0-.231.038-.448.223-.663.221a1.3,1.3,0,0,1-1.1-1.14c-.006-.219.187-.426.184-.627,0-.235-.292-.53-.516-.957-.214-.411-.3-.876-.514-1.213-.229-.358-.531-.529-.7-.811a5.313,5.313,0,0,1-.479-1.914c-.037-.22-.188-.46-.221-.735a8.294,8.294,0,0,0-.036-.993,5.057,5.057,0,0,0-.442-.7c-.259-.477-.441-1.1-.662-1.471-.207-.348-.624-.71-.662-1.1a5.482,5.482,0,0,1,.073-1.03c.04-.259.231-.463.295-.735.042-.181-.009-.389.036-.588.188-.842,1.116-1.149.994-2.172-.052-.434-.359-.647-.4-1.141-.021-.231.115-.433.11-.662a3.436,3.436,0,0,0-.4-1.067,8.449,8.449,0,0,0-1.14-2.171c-.293-.336-.678-.573-.92-.883a2.331,2.331,0,0,1-.442-.92c0-.21.162-.341.221-.553.077-.271.083-.785.185-1.214a3.192,3.192,0,0,0,.221-.993,1.534,1.534,0,0,0-.884-.993c-.514-.127-1.043.164-1.692.11-.559-.354-.518-1.28-1.325-1.4m20.348,13.173c.17-.27.384-1.031,0-1.215h-.073c-.164.306-.339,1.044.073,1.215M286,303.934c.125-.254.417-.524.368-.845-.106-.71-1.431-.36-1.581.146-.1.342.06.612-.075.957.145.272.509.326.957.294.249-.109.217-.319.331-.553m-2.244,3.791c.146-.27-.232-.447-.294-.736-.073-.34.082-.739-.222-.921h-.109c-.266.6.11,1.6.625,1.657m25.095-36.539c-.138-.278-.536.081-.367.331.249.016.338-.128.367-.331m-8.573,1.508c.6-.115.006-1.069-.442-.957-.586.147.035,1.035.442.957m-2.723,4.746c.184-1.275-.811-1.371-.994-2.28.085.011.041-.107.111-.111.241-.116.606.186.735-.109,0-.436-.55-.761-1.1-.552-.16-.11-.181-.358-.22-.589-.417-.248-1.449-.791-1.436-1.288.012-.409.54-.638,1.141-.625.254-.192.091-.783-.147-.92a2.219,2.219,0,0,0-2.061.368c-.289.208-.612.353-.773.478a.947.947,0,0,0-.331.589c.023.227.349.361.478.662.067.155.052.349.111.479.161.354.572.584.882.882.219.211.834.668.846.92.012.21-.189.256-.256.478a2.738,2.738,0,0,0-.11.92c.08.4.5.419.881.589a3.362,3.362,0,0,0,1.141.477,1.549,1.549,0,0,0,1.1-.368m-8.648-2.649c1-.18.542-1.023.037-1.324-.383-.229-.841-.428-1.288-.7-.259-.158-1.244-.456-1.25-.772-.008-.345.733-.459.442-1.068-.5-.122-1.7.071-1.619.626.048.32.428.143.515.478-.36.128-.8.465-1.177.4-.451-.071-.567-.624-.81-.957-.35.012-.581-.339-.993-.294-.433.047-.662.676-.883.994-.118.167-.3.254-.368.4-.038.091,0,.236-.037.368-.126.409-.48.559-.442.92.035.319.381.461.406.735-.025.283-.478.136-.442.479.659.543.7-.257,1.031-.368.269-.091.8.074,1.139,0,.276-.061.494-.324.81-.442a2.261,2.261,0,0,1,.7-.148c1.171-.049,1.927.714,2.944.736a8.019,8.019,0,0,0,1.287-.073m-2.355,4.342c.02-.4-.151-.693-.185-1.251-.679-.41-1.186.38-1.876.294-.423-.053-.727-.547-1.177-.477-.248.037-.371.358-.626.4-.526.1-.765-.421-1.324-.22a4.042,4.042,0,0,1-1.326-2.686c-.429-.563-1.084-.105-1.4.258-.194,0-.436-.108-.478.11-.144.68.962.752.957,1.215,0,.3-.432.272-.625.477s-.069.413-.331.552c-.725.087-.966-.309-.957-.956-.313-.476-.709-.823-.993-1.215a1.5,1.5,0,0,1-.295-.589c-.026-.172.082-.39.038-.588-.08-.352-.734-.617-1.142-.81a6.711,6.711,0,0,1-1.287-.663c-.219-.184-.322-.5-.515-.625-.165-.1-.369-.082-.516-.184-.2-.142-.168-.377-.442-.442-.138-.051-.352.137-.441.258-.179.8.473.858.772,1.214.2.244.307.612.515.773.223.172.524.14.81.258.2.08.325.325.515.441.351.214.915.251.957.663-.218.149-.713-.217-.882.148-.044.239.19.361.184.589a.763.763,0,0,1-.773.7c-.036-.216.192-.392.185-.626-.016-.469-.957-1.183-1.435-1.4-.225-.1-.5-.107-.7-.221a5.265,5.265,0,0,1-1.215-.992c-.263-.349-.488-.994-1.067-.957-.236.014-.431.231-.625.331a5.514,5.514,0,0,0-.553.294,1.286,1.286,0,0,1-.589.295c-.462.02-.854-.342-1.251-.257a1.044,1.044,0,0,0-.4.295,5.3,5.3,0,0,1,.038.588c-.12.208-.476.195-.736.332a5.082,5.082,0,0,0-1.031.919c-.2.2-.379.36-.4.515-.02.122.1.353.074.516a1.739,1.739,0,0,1-.589.7c-.131.09-.3.1-.442.184-.29.173-.42.4-.663.442-.643.12-1.812-.129-1.8.553.006.454.62.457.993.441a11.151,11.151,0,0,0,1.251.038,5.3,5.3,0,0,0,.625-.368c.132-.06.268-.061.368-.11.22-.111.344-.29.516-.368a4.581,4.581,0,0,1,1.324-.295c.5-.029,1.015.051,1.656,0,.228-.018.454-.165.7-.184.4-.032.927.158,1.25.148.224-.007.474-.225.735-.221a.754.754,0,0,1,.663.406c.031.108-.062.279-.037.442.043.267.272.378.258.552-.02.23-.594.538-.516.809.051.175.463.357.663.478a2.388,2.388,0,0,0,.81.331c.208.023.392-.058.588-.037a2.9,2.9,0,0,1,1.031.368c.346.243.3.634.7.772.171.06.479.026.7.074.536.116.934.56,1.325.515.617-.072.336-.653.406-1.067.157-.939,1.992-.9,2.354-.258.269.071.5.011.81.11.177.058.308.251.478.295.128.032.315-.019.478,0,.705.08,1.344.6,1.951.515.384-.057.663-.419,1.029-.442.7-.044,1.155.524,1.914.257.559-.2.434-.775.625-1.361.133-.407.389-.686.4-.992m39.666-12.548a1.318,1.318,0,0,0-.368-1.251c-.424.073-.118.515-.147.773-.042.366-.43.619-.406.993-.141.166-.383.231-.4.515.234.162.336-.127.514-.295.282-.264.712-.419.81-.735m-9.64-12.768a1.406,1.406,0,0,0-.81.295c-.138.073-.42.114-.331.331.353-.043,1.056-.2,1.14-.625m-15.528,4.526a.765.765,0,0,0,.7-1.325c-.134-.128-.585-.178-.771-.477-.225-.36-.194-.84-.737-.736-.005.043.007.1-.037.109-.051.8,1.121,1.007,1.1,1.656-.008.34-.368.376-.257.773" transform="translate(-36.774 -36.818)" fill="#ededed"/>
        <path id="Path_70242" data-name="Path 70242" d="M295.238,257.681c-.107-.4.647-.334.516.038-.118.11-.441.1-.516-.038" transform="translate(-43.069 -37.552)" fill="#ededed"/>
        <path id="Path_70243" data-name="Path 70243" d="M289.942,283.438c.017-.3.71-.416.846-.147-.045.3-.7.5-.846.147" transform="translate(-42.298 -41.306)" fill="#ededed"/>
        <path id="Path_70244" data-name="Path 70244" d="M275.165,281.134c.383-.311,1.238-.1,1.766-.111-.1.282-.114.647-.331.81a1.986,1.986,0,0,1-1.435-.7" transform="translate(-40.143 -40.988)" fill="#ededed"/>
        <path id="Path_70245" data-name="Path 70245" d="M272.014,278.835c.506-.528,1.036-.249.846.772-.12.3-.647.711-.883.258a3.877,3.877,0,0,0,.037-1.03" transform="translate(-39.678 -40.64)" fill="#ededed"/>
        <path id="Path_70246" data-name="Path 70246" d="M272.8,277.483a.488.488,0,0,1-.257.552c-.485-.085-.117-.956.257-.552" transform="translate(-39.726 -40.465)" fill="#ededed"/>
        <path id="Path_70247" data-name="Path 70247" d="M264.265,268.19a.622.622,0,0,0-.331-.589c-.121-.067-.306-.036-.442-.11-.359-.2-.489-.608-.7-.7.027-.4-.111-.7,0-.957a2.174,2.174,0,0,1,.81-.7c.321-.114.658-.012.846-.257a.239.239,0,0,1,.184.036c0,.232-.2.271-.221.478.045.335.635.126.7.442-.056.344-.365.412-.368.663,0,.218.447.633.663.92.161.213.444.371.589.588.126.19.154.418.257.515.193.184.63.214.663.478.043.352-.437.49-.368.883-.506.4-1.349.191-2.171.295-.373.047-.783.418-1.178.11-.091-.247.327-.281.368-.514-.029-.218-.3-.187-.368-.368.107-.286.441-.345.406-.774.2-.224.6-.139.662-.441" transform="translate(-38.331 -38.641)" fill="#ededed"/>
        <path id="Path_70248" data-name="Path 70248" d="M261.048,267.7c.491-.3,1.35-.071,1.4.295.037.276-.26.316-.368.625-.1.282.019.616-.109.811-.113.167-.418.158-.626.219-.463.139-1.356.682-1.73.073.054-.325.37-.391.478-.661.007-.213-.219-.325-.184-.552.044-.278.254-.182.552-.295.217-.083.31-.345.589-.516" transform="translate(-37.874 -39.033)" fill="#ededed"/>
        <path id="Path_70249" data-name="Path 70249" d="M231.686,258.342c.077.327-.968.754-1.068.332-.079-.338.8-.762,1.068-.332" transform="translate(-33.643 -37.662)" fill="#ededed"/>
        <path id="Path_70250" data-name="Path 70250" d="M230.353,355.468H229.8a.871.871,0,0,1,.552,0" transform="translate(-33.525 -51.851)" fill="#ededed"/>
        <path id="Path_70251" data-name="Path 70251" d="M228.509,255.308a.178.178,0,0,1,.221,0c-.037.086-.065.18-.221.147Z" transform="translate(-33.336 -37.24)" fill="#ededed"/>
        <path id="Path_70252" data-name="Path 70252" d="M224.536,262.129c.008.2-.731.538-.811.147a.29.29,0,0,1,.148-.294c.2-.12.655-.052.663.147" transform="translate(-32.638 -38.211)" fill="#ededed"/>
        <path id="Path_70253" data-name="Path 70253" d="M206.71,302.163c-.02.055-.055.093-.073.148-.391-.014-.038-.514.073-.148" transform="translate(-30.119 -44.062)" fill="#ededed"/>
        <path id="Path_70254" data-name="Path 70254" d="M189.261,272.067c.259-.15.506.227.332.4-.285.056-.357-.27-.332-.4" transform="translate(-27.61 -39.686)" fill="#ededed"/>
        <path id="Path_70255" data-name="Path 70255" d="M226.943,270.811c-.172-.044-.406-.035-.625-.073-.188-.034-.41-.09-.588-.111-.454-.054-.945.079-1.215-.184a12.043,12.043,0,0,1,1.583-1.656c.167-.149.527-.251.442-.552-.313-.275-.7.017-.993.184a3.368,3.368,0,0,1-1.031.479c-.608.09-1.415-.179-1.913.146-.068.278.566.171.478.589a.734.734,0,0,1-.662-.11c-.171-.155-.073-.386-.184-.479a2.284,2.284,0,0,0-1.214-.146.853.853,0,0,0-.774.625c.465.217,1.23-.224,1.4.331-.255.458-.854.71-.773,1.325a.828.828,0,0,0,.516.588c.2.036.318-.166.514-.148s.162.257.406.221c.354-.151.55-.648.956-.625.487.591-.439.879-.956,1.067-.589.213-1.355.327-1.8.516-.235.1-1.125.958-1.25.293-.091-.479.44-.341.552-.735a3.076,3.076,0,0,0-1.619.442c-.739.279-1.993.457-2.172,1.287-.035.167.073.478-.036.589-.088.09-.616.105-.846.184-.355.121-.664.381-.884.441-.166.045-.409.032-.514.074-.293.114-.4.509-.736.772-.137.108-.442.186-.552.295-.19.19-.216.665-.552.736-.214.019-.388-.161-.589-.038a4.738,4.738,0,0,1-.036,1.583,10.139,10.139,0,0,1-1.472.92c-.309.173-.585.219-.957.4-.264.132-.506.447-.81.626-.7.413-1.551.9-1.545,1.95,0,.226.118.471.147.736.018.155-.019.308,0,.478.044.384.322.875,0,1.14a4.4,4.4,0,0,1-1.472-.625c-.095-.364.191-.663.148-.993a1.2,1.2,0,0,0-.626-.774c-.225-.035-.43.2-.661.184-.276-.021-.531-.4-.885-.442-.518-.061-.9.118-1.472.038-.555.3-.717.824-1.4.772-.24-.018-.46-.2-.736-.258a4.587,4.587,0,0,0-1.068-.146,4.273,4.273,0,0,0-1.619.772c-.475.247-1.147.554-1.288,1.067-.077.276-.012.665-.11.92a4.5,4.5,0,0,1-.295.478,3.706,3.706,0,0,0-.442,2.834,6.523,6.523,0,0,0,.626,1.25,2.038,2.038,0,0,0,1.066.515,4.682,4.682,0,0,0,.846-.184,8.051,8.051,0,0,0,.957-.147c.8-.255.638-1.33,1.435-1.693a3.779,3.779,0,0,1,1.361-.22.823.823,0,0,1,.259.7c-.021.188-.2.358-.295.626-.084.235-.1.51-.184.7-.109.248-.354.429-.441.662-.058.152-.026.341-.073.478-.085.243-.409.413-.259.662.788.313,1.742-.089,2.429.038.29.053.888.4.884.846-.005.335-.26.553-.3.92-.044.461-.237,1.025-.258,1.4a2.03,2.03,0,0,0,1.545,1.656c.7-.009,1.108-.7,1.951-.331.279.121.575.575.884.553.255-.019.639-.465.809-.773.208-.377.222-.694.588-.883.395-.2.709-.106,1.215-.295a2.907,2.907,0,0,0,.625-.368c.179-.122.366-.444.589-.22.294.293-.36.459-.111.773.51.27.771-.5,1.141-.515a2.609,2.609,0,0,1,.736.368c.287.189.384.454.7.514.2.04.525-.077.808-.037.376.054.6.376.884.368.348-.009.513-.387.81-.442a.977.977,0,0,1,1.177.478c.32.056.331-.371.625-.22-.161.321.055.469.184.736.084.172.07.294.148.368.176.167.515.167.772.33a4.559,4.559,0,0,1,.737.846,2.23,2.23,0,0,0,1.287.773c.4.026.733-.115,1.068-.074a3.451,3.451,0,0,1,1.766.884c.3.228.565.388.662.662.068.191.034.448.11.662.162.458.83.679.589,1.472.11.231.359.315.625.478.214.131.394.4.625.442a3.655,3.655,0,0,0,.442-.038,3.451,3.451,0,0,1,1.068.331,4.3,4.3,0,0,1,.662.222c.187.126.211.549.442.661.15.073.486-.028.736,0,.395.046.931.288,1.288.3.216,0,.4-.09.588-.074.9.069,1.413,1.147,2.282,1.472.27.1.7.031.883.111.326.141.6,1.139.625,1.581.074,1.337-.952,1.766-1.545,2.65-.123.185-.193.477-.368.735-.354.52-.747.628-.7,1.583.013.262.146.518.146.809a5.318,5.318,0,0,1-.11,1.141c-.061.244-.262.442-.295.663s.067.4.038.589a3.446,3.446,0,0,1-.406.808c-.34.629-.414,1.367-1.1,1.619-.4.15-.954.067-1.4.221-.179.063-.407.229-.626.331-.641.3-1.553.7-1.73,1.362-.157.589.22,1.057.111,1.73a6.1,6.1,0,0,1-.442.625c-.159.209-.238.454-.406.663-.221.277-.565.4-.7.773-.045.126-.016.277-.073.477-.021.074-.156.19-.221.331s-.056.3-.11.406c-.167.339-.668,1.111-1.03,1.214-.764.214-1.57-.324-2.1-.222.076.37.344.331.516.59a3.916,3.916,0,0,0,.294.514c.165.191.311.262.331.478a1.309,1.309,0,0,1-.552,1.068,3.348,3.348,0,0,1-1.068.294c-.272.046-.974.049-1.1.222-.19.255.1.887-.035,1.14-.276.538-1.016-.014-1.4.147a.706.706,0,0,0,.295.7c.231.136.582-.041.736.221-.076.366-.47.413-.553.773.01.351.118.443.073.661-.1.473-.831.453-.81.957.032.753,1.446.445,1.472,1.179.015.444-.4.448-.552.881-.079.232.047.286,0,.478-.06.261-.367.337-.367.625,0,.353.514.74.772,1.031a4.1,4.1,0,0,0,.92.883c.517.285,1.286.221,1.508.736-.069.309-.369.392-.662.477h-.073a.874.874,0,0,0-.553,0h-.514c-.493-.226-1.089-.373-1.693-.588-.218-.078-.463-.261-.7-.367-.178-.081-.378-.113-.516-.185-.317-.166-.674-.7-.992-.918-.2-.132-.5-.2-.626-.333a5.137,5.137,0,0,1-.295-.551c-.119-.169-.337-.293-.479-.478a3.24,3.24,0,0,1-.7-1.252c0-.295.281-.495.185-.771-.09-.261-.655-.2-.736-.516-.05-.188.163-.5.147-.772-.009-.155-.3-.366-.184-.589.132-.258.381.021.589-.11-.155-.531.013-1.386-.515-1.546-.272.229.277.742-.185.884-.445-.2-.342-.784-.442-1.215a4.633,4.633,0,0,1-.219-.846,4.44,4.44,0,0,0,.036-.514c-.078-.5-.63-.9-.662-1.4-.015-.24.147-.442.184-.7.026-.174-.025-.369,0-.553.032-.233.161-.448.184-.662a5.831,5.831,0,0,0-.073-1.436c-.091-.424-.429-.786-.479-1.25-.018-.168.056-.448.037-.663s-.126-.4-.146-.627a4.209,4.209,0,0,1,.073-.662c.038-.461-.091-.976-.073-1.435,0-.135.075-.236.073-.367-.005-.38-.131-.763-.148-1.141a13.2,13.2,0,0,0-.037-1.84,6.406,6.406,0,0,0-.368-1.545,4.8,4.8,0,0,0-1.361-1.141c-.258-.143-.566-.192-.846-.331-.6-.294-1.761-.915-2.024-1.508-.076-.173-.066-.4-.148-.589a7.674,7.674,0,0,0-.736-1.068c-.454-.694-.821-1.565-1.287-2.281a9.324,9.324,0,0,0-.7-1.067c-.152-.171-.637-.331-.7-.589a4.23,4.23,0,0,1-.294-1.066c.053-.353.737-.637.735-.957,0-.273-.365-.432-.442-.662-.185-.564.109-.893.331-1.362.073-.154.145-.4.221-.515.134-.2.408-.26.588-.478.1-.123.165-.378.3-.553.279-.372.73-.511.846-.846a7.022,7.022,0,0,0,.037-2.1c-.063-.264-.311-.484-.4-.736-.167-.444-.206-.928-.663-.92-.283.006-.482.319-.663.515-.044.262-.02.546-.294.625-.419.124-.578-.44-1.068-.588-.194-.06-.5-.056-.625-.111-.355-.16-.471-.681-.846-.884-.313-.167-.582-.109-.773-.367a2.892,2.892,0,0,1-.036-.736c-.4-.236-.746-1.116-1.215-1.324-.312-.138-.788-.126-1.177-.258a4.736,4.736,0,0,0-.516-.184,3.066,3.066,0,0,1-.662-.148c-.729-.361-1.121-1.533-2.023-1.508-.385.01-.756.371-1.1.368a4.366,4.366,0,0,1-1.361-.478c-.452-.21-.952-.325-1.325-.515-.3-.154-.51-.436-.773-.553-.2-.089-.5-.105-.662-.183a7.358,7.358,0,0,1-.773-.553c-.278-.191-.577-.486-.589-.734-.012-.288.266-.533.295-.811a2.869,2.869,0,0,0-.956-2.023c-.3-.384-.655-.711-.957-1.067a2.73,2.73,0,0,0,0-.515,7.339,7.339,0,0,1-.663-.883c-.219-.3-.644-.62-.7-.957-.067-.413.157-.776,0-1.178-.262-.666-1.186-.366-1.068.515.033.243.375.569.478.81s.085.551.184.846.38.528.479.846c.155.5.151,1.046.294,1.361.126.279.592.545.331.883-.348.072-.483-.277-.7-.479-.121-.112-.559-.326-.625-.588-.056-.217.137-.508.073-.774-.127-.519-1.175-.532-1.179-1.066,0-.336.439-.376.442-.7,0-.354-.484-.655-.589-.956a5.629,5.629,0,0,1-.147-1.1,6.82,6.82,0,0,0-.074-1.068,1.735,1.735,0,0,0-.7-.735c-.322-.179-.577-.105-.735-.368a3.014,3.014,0,0,1-.259-.956c-.053-.442-.012-.927-.038-1.4a7.183,7.183,0,0,1,0-1.434c.183-.356.514-.532.7-.884.129-.245.147-.548.293-.809a11.966,11.966,0,0,1,1.251-1.4,6.526,6.526,0,0,0,1.067-1.582,2.4,2.4,0,0,0,.295-.92c-.049-.354-.716-.647-.663-1.067.033-.261.4-.257.516-.515a2.637,2.637,0,0,0,.11-.663,6.049,6.049,0,0,1-.11-1.1c.06-.324.542-.454.295-.809s-.686.189-.957-.038c-.248-.209.05-.462.073-.846.009-.154-.089-.328-.073-.442.022-.165.343-.442.258-.552-.2-.252-.421-.891-.846-1.1-.54-.271-1.125-.088-1.876-.221-.462-.08-.68-.512-1.1-.477-.261.02-.413.321-.773.477a6.428,6.428,0,0,1-1.178.184c-.35.081-.519.324-.884.295-.3-.024-.3-.3-.661-.331a5.913,5.913,0,0,0-.625.111,8.528,8.528,0,0,1-2.172-.038,6.292,6.292,0,0,1-1.435-.552c-.437-.2-1.25-.453-1.214-.773.022-.207.769-.425,1.067-.515a6.278,6.278,0,0,1,1.141-.4c.141-.009.326.087.514.074s.421-.188.663-.221c.514-.071,1.238.026,1.177-.478-.39-.308-1.982.228-2.023-.442-.025-.4.6-.528,1.068-.625a7.109,7.109,0,0,1,1.435-.221c.419.021.973.492,1.214-.036.117-.376-.143-.691-.221-.995.313-.43.887-.377,1.326-.441a5.351,5.351,0,0,0,1.4-.368,5.378,5.378,0,0,1,1.4-.368c.5-.065.984-.254,1.435-.295a10.137,10.137,0,0,0,1.067-.073,4.236,4.236,0,0,1,.994-.22c.231.01.43.179.662.22s.468-.01.7.038c.178.037.337.157.515.184.278.042.578-.038.846,0,.247.036.457.19.7.22.566.073,1.216-.03,1.766.074.209.039.4.143.625.185s.453-.006.663.036c.292.059.537.336.846.368a10.973,10.973,0,0,0,1.8-.295,10.362,10.362,0,0,0,1.326-.073,8.484,8.484,0,0,1,1.176-.257c.2-.009.369.061.552.037s.419-.255.625-.221c.274.044.226.39.516.478.321-.166.641.012.993,0a4.888,4.888,0,0,1,1.03-.11c.671.105,1.606.761,2.134.4.133-.09.1-.245.221-.478.163-.317.483-.689.4-1.141-.737.012-1.442.372-2.281.4-.849-.531.226-.861.847-1.1.51-.2.914-.646,1.545-.735a7.182,7.182,0,0,1,1.693.184c.356.041.713-.025.919.036.362.109.548.467.846.552.129.038.341.034.515.075.331.076.627.25.957,0,.259.046.29.322.552.368.244-.132.433-.468.809-.553.164-.037.337.028.515,0,.3-.048.7-.454.883-.074-.075.266-.477.306-.7.516-.2.187-.5.615-.477.81.044.351.57.215.588.662-.079.258-.378.142-.625.258-.227.105-.312.322-.553.368a9.8,9.8,0,0,1-1.8-.148c-.027.251.286.4.442.478a3.09,3.09,0,0,0,1.692.222c.378-.009.815.113,1.141-.111.206-.141.195-.453.367-.625a1.41,1.41,0,0,1,.994-.368c.167.028.4.227.4.368.005.334-.473.227-.479.589a1.084,1.084,0,0,0,1.178-.516c.032-.227-.267-.358-.258-.589.018-.385.541-.379.479-.773-.253-.2-.517.043-.774,0-.361-.061-.687-.494-.846-.773.159-.2.494-.066.735-.037a1.946,1.946,0,0,1,1.472-.589c.249-.025.579-.123.7.11.06.348-.515.558-.4.957.5.124.658-.545,1.068-.811a4.037,4.037,0,0,1,.7-.294c.227-.086.477-.3.663-.294.2.005.24.173.442.257.182.076.418-.052.478.184-.425.739-2.016.314-2.429,1.067.093.5-.249.986.038,1.326.2.241.665.077.772.331.143.339-.446.339-.294.735.389.233.853-.222,1.214-.4.386-.2.875-.427.92-.883-.195-.374-.918-.085-1.03-.478-.06-.214.222-.692.294-.773a4.08,4.08,0,0,1,2.686-.957c.184.016.368.128.552.148.633.065,1.38-.273,1.877,0,.4-.233.879.032,1.435-.038.428.253.31.791.957,1.031.176.065.4.018.625.073.172.041.356.241.553.331.278.126.492.1.553.294s-.2.317-.185.515c.158.132.026.329.11.515.159.341.559.316.956.479.28.114.874.465.847.735-.018.182-.559.5-.736.589a2.992,2.992,0,0,1-.957.331c-.347-.051-.483-.754-.957-.735a.393.393,0,0,0-.406.4c-.007.483.542.5.553.92.015.5-.273.534-.7.846a2.981,2.981,0,0,0-.957-.331c-.235.279.387.379.185.735a3.017,3.017,0,0,1-1.582-.331,3.079,3.079,0,0,1-.552-.111c-.209-.12-.271-.478-.442-.662a1.53,1.53,0,0,0-.92-.515c-.454,0-1.112.566-1.472.037.249-.843,1.429-.218,2.207-.515.29-.111.389-.417.627-.553.476-.271,1.249-.309,1.177-.846-.037-.271-.414-.267-.625-.406-.288-.188-.508-.85-.92-.882-.212-.017-.365.162-.589.184-.476.044-1.005-.191-1.435,0-.2.114-.065.3-.22.515-.128.178-.431.229-.553.4-.141.208-.112.465-.295.625a4.188,4.188,0,0,1-1.324.442c-.171.059-.386.26-.552.258-.3,0-.434-.408-.772-.258-.031.394.415.553.7.736a1.535,1.535,0,0,1,.736.735c-.3.635-.777-.033-1.251-.036-.522,0-1.284.994-1.729.184.11-.429.583-.5.7-.92-.52.089-.972.526-1.583.663-.256.056-.507.043-.736.109-.44.13-.747.454-1.213.627-.183.067-.4.046-.589.109a9.982,9.982,0,0,0-1.435.662,8.375,8.375,0,0,0-1.288.774c-.157.135-.565.618-.552.772.019.22.431.291.442.515-.009.136-.239.429-.073.626.151.179.453.034.772.073.562.069.93.534,1.361.773a3.786,3.786,0,0,0,1.178.441c.507.063,1.072-.148,1.14.258.068.389-.476.529-.515.773.272.36-.185.531-.184.846a.8.8,0,0,0,.589.661,1.318,1.318,0,0,0,1.068-.735c.183-.442.105-1.039.441-1.361,1.714.048,3.165-.779,3.054-2.538A2.416,2.416,0,0,1,218,262.9c.054-.284.542-.523.478-.882.48-.148.46-.918.957-1.031.416-.094.887.295,1.435.258.179-.012.409-.172.588-.147.36.05.577.494.847.7.238.183.49.125.552.368-.072.413-.361.423-.332.809a.8.8,0,0,0,.553.626,1.765,1.765,0,0,0,.92-.22c.492-.233.914-.936,1.325-.847.325.071.577,1.1.625,1.473.051.4-.054.7-.036,1.068.047.621.828.557,1.214.882.115.1.161.35.258.478.186.249.413.249.442.515.068.635-.577.689-.516,1.4-.133.274-.468.258-.442.625.044.581.877.135,1.1.588.122.243-.02.425-.111.772.285.341.284.883-.22.884-.306,0-.39-.329-.7-.4m-39.775-.957c.173-.178-.073-.555-.332-.4-.025.135.048.46.332.4M212.85,273.2c-.154-.15-.653-.107-.994-.073-.241.024-.527.075-.552.257.383.176,1.426.3,1.546-.184m-1.914-.625a.451.451,0,0,0-.147-.773c-.12-.032-.28.089-.478.074s-.416-.207-.588-.221a.881.881,0,0,0-.7.257c-.011.22.162.255.148.478-.358.256-.168,1.11.184,1.141.374.033.567-.945,1.067-1.03.182-.032.274.1.515.073m-.515,1.472c-.523-.186-1.006.126-1.434.184-.255.034-.722-.052-.663.331.048.312.53.2.81.11a3.5,3.5,0,0,0,1.287-.625m-1.619-2.8c.733-.313-.143-1.274-.478-1.361-.6-.156-1.445.437-2.134.625-.389.106-.758.115-.847.442.348.576,1.037-.127,1.545-.038.258.045.408.4.663.442a7.738,7.738,0,0,0,1.251-.11m-.516.588c-.152-.179-.977.021-1.215.184-.162.113-.272.387-.441.589s-.368.371-.515.553c-.132.163-.878,1.238-.294,1.361.249.052.76-.465.809-.662a2.207,2.207,0,0,1,.993-1.473c.3-.183.613-.16.662-.552m-4.6-4.121c.411-.014.689-1.228,0-1.068-.46.108-.572,1.088,0,1.068m-1.986,27.6c.018-.056.054-.093.073-.148-.111-.366-.464.133-.073.148m-15.565-30.8c.009-.069-.041-.081-.036-.147-.112,0-.243-.021-.221.11a.152.152,0,0,0,.257.037m38.673-5.777c.182.022.284-.035.258-.22-.164-.115-.4.037-.258.22m-4.231-3.605a.178.178,0,0,0-.221,0v.147c.156.033.184-.061.221-.147m-13.983,2.833c.123-.079.311-.186.22-.368a6.93,6.93,0,0,0-1.692-.11c-.34-.481-.909-.555-.957.221.684.555,1.721-.26,2.428.257m-6.587,3.79c.209-.072.5-.035.552-.258-.172-.138-.348-.323-.552-.331-.266-.009-.395.226-.661.368-.313.164-.744.2-.773.478a2.676,2.676,0,0,0,1.434-.258m-.184-2.649c.235-.04.477.066.626-.147-.175-.811-1.3-.315-1.95-.258a1.868,1.868,0,0,0-.368.736c.507.128,1.12-.234,1.692-.331m11.039,37.606c.29-.047.206-.716-.147-.553-.266.123-.128.6.147.553" transform="translate(-25.184 -37.068)" fill="#ededed"/>
        <path id="Path_70256" data-name="Path 70256" d="M188.363,266.127c-.006.066.044.078.036.148a.153.153,0,0,1-.257-.037c-.021-.132.108-.112.221-.111" transform="translate(-27.447 -38.824)" fill="#ededed"/>
        <path id="Path_70257" data-name="Path 70257" d="M186.99,268.642a.78.78,0,0,1-.516.441.892.892,0,0,1-.184-.184c.015-.349.513-.606.7-.257" transform="translate(-27.177 -39.167)" fill="#ededed"/>
        <path id="Path_70258" data-name="Path 70258" d="M331.826,279.518c0,1.312-2.376,3.562-2.376,3.562s-2.376-2.25-2.376-3.562a2.376,2.376,0,1,1,4.752,0" transform="translate(-47.715 -40.431)" fill="#1ddba9"/>
        <path id="Path_70259" data-name="Path 70259" d="M374.252,332.268c0,1.312-2.376,3.562-2.376,3.562s-2.376-2.25-2.376-3.562a2.376,2.376,0,0,1,4.752,0" transform="translate(-53.905 -48.126)" fill="#1ddba9"/>
        <path id="Path_70260" data-name="Path 70260" d="M235.456,323.537c0,1.312-2.376,3.562-2.376,3.562s-2.376-2.25-2.376-3.562a2.376,2.376,0,0,1,4.752,0" transform="translate(-33.656 -46.853)" fill="#1ddba9"/>
        <path id="Path_70261" data-name="Path 70261" d="M204.545,295.313c0,1.312-2.376,3.562-2.376,3.562s-2.376-2.25-2.376-3.562a2.376,2.376,0,0,1,4.752,0" transform="translate(-29.147 -42.735)" fill="#4a3dff"/>
        <path id="Path_70262" data-name="Path 70262" d="M210.522,264.583c0,1.312-2.376,3.562-2.376,3.562s-2.376-2.25-2.376-3.562a2.376,2.376,0,1,1,4.752,0" transform="translate(-30.019 -38.252)" fill="#4a3dff"/>
        <path id="Path_70263" data-name="Path 70263" d="M189.032,259.373c0,1.312-2.376,3.562-2.376,3.562s-2.376-2.25-2.376-3.562a2.376,2.376,0,0,1,4.752,0" transform="translate(-26.884 -37.492)" fill="#1ddba9"/>
        <path id="Path_70264" data-name="Path 70264" d="M328.229,257.173c0,1.312-2.376,3.562-2.376,3.562s-2.376-2.25-2.376-3.562a2.376,2.376,0,1,1,4.752,0" transform="translate(-47.191 -37.171)" fill="#4a3dff"/>
        <path id="Path_70265" data-name="Path 70265" d="M369.242,280.868c0,1.312-2.376,3.562-2.376,3.562s-2.376-2.25-2.376-3.562a2.376,2.376,0,1,1,4.752,0" transform="translate(-53.174 -40.628)" fill="#4a3dff"/>
        <path id="Path_70266" data-name="Path 70266" d="M282.329,265.033c0,1.312-2.376,3.562-2.376,3.562s-2.376-2.25-2.376-3.562a2.376,2.376,0,0,1,4.752,0" transform="translate(-40.494 -38.318)" fill="#1ddba9"/>
        <path id="Path_70267" data-name="Path 70267" d="M285.479,302.825c0,1.312-2.376,3.562-2.376,3.562s-2.376-2.25-2.376-3.562a2.376,2.376,0,0,1,4.752,0" transform="translate(-40.954 -43.831)" fill="#4a3dff"/>
        <path id="Path_70268" data-name="Path 70268" d="M291.214,363.739c0,1.312-2.376,3.562-2.376,3.562s-2.376-2.25-2.376-3.562a2.376,2.376,0,1,1,4.752,0" transform="translate(-41.791 -52.718)" fill="#4a3dff"/>
      </g>
    </g>
    <text id="Your_Text_01" data-name="Your Text 01" transform="translate(253.737 310.939)" fill="#848484" font-size="3" font-family="Montserrat-Thin, Montserrat" font-weight="200"><tspan x="0" y="0" letter-spacing="-0.059em">Y</tspan><tspan y="0">our </tspan><tspan y="0" letter-spacing="-0.054em">T</tspan><tspan y="0" letter-spacing="-0.014em">e</tspan><tspan y="0">xt 01</tspan></text>
    <g id="Group_24269" data-name="Group 24269">
      <g id="Group_24268" data-name="Group 24268" clip-path="url(#clip-path)">
        <path id="Path_70269" data-name="Path 70269" d="M349.261,363.739c0,1.312-2.377,3.562-2.377,3.562s-2.375-2.25-2.375-3.562a2.376,2.376,0,1,1,4.752,0" transform="translate(-50.259 -52.718)" fill="#1ddba9"/>
      </g>
    </g>
    <text id="Your_Text_02" data-name="Your Text 02" transform="translate(303.316 310.939)" fill="#848484" font-size="3" font-family="Montserrat-Thin, Montserrat" font-weight="200"><tspan x="0" y="0" letter-spacing="-0.059em">Y</tspan><tspan y="0">our </tspan><tspan y="0" letter-spacing="-0.054em">T</tspan><tspan y="0" letter-spacing="-0.014em">e</tspan><tspan y="0">xt 02</tspan></text>
    <text id="Maps" transform="translate(142.327 205.172)" fill="#617087" font-size="3" font-family="Montserrat-Thin, Montserrat" font-weight="200"><tspan x="0" y="0">Maps</tspan></text>
    <g id="Group_24271" data-name="Group 24271">
      <g id="Group_24270" data-name="Group 24270" clip-path="url(#clip-path)">
        <path id="Path_70270" data-name="Path 70270" d="M522.735,306.965H425.889a6.425,6.425,0,0,1-6.425-6.425V188.947a6.424,6.424,0,0,1,6.425-6.424h96.846a6.424,6.424,0,0,1,6.425,6.424V300.54a6.425,6.425,0,0,1-6.425,6.425" transform="translate(-61.194 -26.627)" fill="#fff"/>
      </g>
    </g>
    <text id="Analitycal" transform="translate(367.071 167.348)" fill="#848484" font-size="3" font-family="Montserrat-Thin, Montserrat" font-weight="200"><tspan x="0" y="0">Analitycal</tspan></text>
    <text id="Lorem_ipsum" data-name="Lorem ipsum" transform="translate(367.071 182.517)" fill="#848484" font-size="2" font-family="Montserrat-Thin, Montserrat" font-weight="200"><tspan x="0" y="0" letter-spacing="-0.009em">L</tspan><tspan y="0">o</tspan><tspan y="0" letter-spacing="-0.014em">r</tspan><tspan y="0">em ipsum</tspan></text>
    <text id="_98_" data-name="98%" transform="translate(450.715 182.517)" fill="#848484" font-size="2" font-family="Montserrat-Thin, Montserrat" font-weight="200"><tspan x="0" y="0">9</tspan><tspan y="0" letter-spacing="-0.01em">8</tspan><tspan y="0">%</tspan></text>
    <text id="Dolor_sit" data-name="Dolor sit" transform="translate(367.071 192.63)" fill="#848484" font-size="2" font-family="Montserrat-Thin, Montserrat" font-weight="200"><tspan x="0" y="0">Dolor s</tspan><tspan y="0" letter-spacing="-0.02em">i</tspan><tspan y="0">t</tspan></text>
    <text id="_50_" data-name="50%" transform="translate(450.715 192.63)" fill="#848484" font-size="2" font-family="Montserrat-Thin, Montserrat" font-weight="200"><tspan x="0" y="0">50%</tspan></text>
    <g id="Group_24273" data-name="Group 24273">
      <g id="Group_24272" data-name="Group 24272" clip-path="url(#clip-path)">
        <rect id="Rectangle_8581" data-name="Rectangle 8581" width="24.001" height="2.562" transform="translate(398.732 192.727)" fill="#1ddba9"/>
      </g>
    </g>
    <text id="Consectetuer" transform="translate(367.071 202.74)" fill="#848484" font-size="2" font-family="Montserrat-Thin, Montserrat" font-weight="200"><tspan x="0" y="0" letter-spacing="-0.024em">C</tspan><tspan y="0">onse</tspan><tspan y="0" letter-spacing="0.005em">c</tspan><tspan y="0" letter-spacing="-0.019em">t</tspan><tspan y="0">etuer</tspan></text>
    <text id="_20_" data-name="20%" transform="translate(450.715 202.74)" fill="#848484" font-size="2" font-family="Montserrat-Thin, Montserrat" font-weight="200"><tspan x="0" y="0" letter-spacing="-0.004em">2</tspan><tspan y="0">0%</tspan></text>
    <g id="Group_24275" data-name="Group 24275">
      <g id="Group_24274" data-name="Group 24274" clip-path="url(#clip-path)">
        <rect id="Rectangle_8583" data-name="Rectangle 8583" width="5.819" height="2.562" transform="translate(398.732 202.839)" fill="#4a3dff"/>
        <rect id="Rectangle_8584" data-name="Rectangle 8584" width="47.083" height="2.562" transform="translate(398.733 182.62)" fill="#4a3dff"/>
      </g>
    </g>
    <text id="Adipiscing" transform="translate(367.071 212.853)" fill="#848484" font-size="2" font-family="Montserrat-Thin, Montserrat" font-weight="200"><tspan x="0" y="0" letter-spacing="-0.004em">A</tspan><tspan y="0">dipis</tspan><tspan y="0" letter-spacing="-0.009em">c</tspan><tspan y="0">ing</tspan></text>
    <text id="_45_" data-name="45%" transform="translate(450.715 212.853)" fill="#848484" font-size="2" font-family="Montserrat-Thin, Montserrat" font-weight="200"><tspan x="0" y="0" letter-spacing="-0.005em">4</tspan><tspan y="0" letter-spacing="-0.009em">5</tspan><tspan y="0">%</tspan></text>
    <g id="Group_24277" data-name="Group 24277">
      <g id="Group_24276" data-name="Group 24276" clip-path="url(#clip-path)">
        <rect id="Rectangle_8586" data-name="Rectangle 8586" width="21.929" height="2.562" transform="translate(398.732 212.95)" fill="#1ddba9"/>
      </g>
    </g>
    <text id="Sed_Diam" data-name="Sed Diam" transform="translate(367.071 222.964)" fill="#848484" font-size="2" font-family="Montserrat-Thin, Montserrat" font-weight="200"><tspan x="0" y="0">Sed Diam</tspan></text>
    <text id="_30_" data-name="30%" transform="translate(450.715 222.964)" fill="#848484" font-size="2" font-family="Montserrat-Thin, Montserrat" font-weight="200"><tspan x="0" y="0">30%</tspan></text>
    <g id="Group_24279" data-name="Group 24279">
      <g id="Group_24278" data-name="Group 24278" clip-path="url(#clip-path)">
        <rect id="Rectangle_8588" data-name="Rectangle 8588" width="11.112" height="2.562" transform="translate(398.732 223.063)" fill="#4a3dff"/>
      </g>
    </g>
    <text id="Nonummy" transform="translate(367.071 233.077)" fill="#848484" font-size="2" font-family="Montserrat-Thin, Montserrat" font-weight="200"><tspan x="0" y="0">Nonum</tspan><tspan y="0" letter-spacing="-0.025em">m</tspan><tspan y="0">y</tspan></text>
    <text id="_80_" data-name="80%" transform="translate(450.715 233.077)" fill="#848484" font-size="2" font-family="Montserrat-Thin, Montserrat" font-weight="200"><tspan x="0" y="0">80%</tspan></text>
    <g id="Group_24281" data-name="Group 24281">
      <g id="Group_24280" data-name="Group 24280" clip-path="url(#clip-path)">
        <rect id="Rectangle_8590" data-name="Rectangle 8590" width="37.349" height="2.562" transform="translate(398.732 233.175)" fill="#1ddba9"/>
      </g>
    </g>
    <text id="Nibh_Euismod" data-name="Nibh Euismod" transform="translate(367.071 243.189)" fill="#848484" font-size="2" font-family="Montserrat-Thin, Montserrat" font-weight="200"><tspan x="0" y="0">Nibh </tspan><tspan y="0" letter-spacing="-0.01em">E</tspan><tspan y="0">uismod</tspan></text>
    <text id="_39_" data-name="39%" transform="translate(450.715 243.189)" fill="#848484" font-size="2" font-family="Montserrat-Thin, Montserrat" font-weight="200"><tspan x="0" y="0">39%</tspan></text>
    <g id="Group_24283" data-name="Group 24283">
      <g id="Group_24282" data-name="Group 24282" clip-path="url(#clip-path)">
        <rect id="Rectangle_8592" data-name="Rectangle 8592" width="19.858" height="2.562" transform="translate(398.732 243.288)" fill="#4a3dff"/>
      </g>
    </g>
    <text id="Ullamcorper" transform="translate(367.071 253.301)" fill="#848484" font-size="2" font-family="Montserrat-Thin, Montserrat" font-weight="200"><tspan x="0" y="0">Ullam</tspan><tspan y="0" letter-spacing="-0.009em">c</tspan><tspan y="0">o</tspan><tspan y="0" letter-spacing="-0.01em">r</tspan><tspan y="0">per</tspan></text>
    <text id="_65_" data-name="65%" transform="translate(450.715 253.301)" fill="#848484" font-size="2" font-family="Montserrat-Thin, Montserrat" font-weight="200"><tspan x="0" y="0">6</tspan><tspan y="0" letter-spacing="-0.009em">5</tspan><tspan y="0">%</tspan></text>
    <g id="Group_24285" data-name="Group 24285">
      <g id="Group_24284" data-name="Group 24284" clip-path="url(#clip-path)">
        <rect id="Rectangle_8594" data-name="Rectangle 8594" width="31.134" height="2.562" transform="translate(398.732 253.399)" fill="#1ddba9"/>
        <path id="Path_70271" data-name="Path 70271" d="M602.636,306.965H559.691a6.424,6.424,0,0,1-6.425-6.425V188.947a6.424,6.424,0,0,1,6.425-6.424h42.945a6.424,6.424,0,0,1,6.425,6.424V300.54a6.425,6.425,0,0,1-6.425,6.425" transform="translate(-80.714 -26.627)" fill="#fff"/>
        <path id="Path_70272" data-name="Path 70272" d="M583.545,218.513a13.945,13.945,0,1,1,13.944-13.945,13.96,13.96,0,0,1-13.944,13.945m0-25.692a11.747,11.747,0,1,0,11.747,11.747,11.76,11.76,0,0,0-11.747-11.747" transform="translate(-83.097 -27.809)" fill="#4a3dff"/>
        <path id="Path_70273" data-name="Path 70273" d="M593.542,205.382a9.183,9.183,0,1,1-9.183-9.183,9.183,9.183,0,0,1,9.183,9.183" transform="translate(-83.91 -28.623)" fill="#4a3dff"/>
      </g>
    </g>
    <text id="_75_" data-name="75%" transform="translate(495.306 176.307)" font-size="3" font-family="Montserrat-Thin, Montserrat" font-weight="200"><tspan x="0" y="0" letter-spacing="-0.019em">7</tspan><tspan y="0" letter-spacing="-0.009em">5</tspan><tspan y="0">%</tspan></text>
    <text id="_75_2" data-name="75%" transform="translate(495.306 176.307)" fill="#f2f5fa" font-size="3" font-family="Montserrat-Thin, Montserrat" font-weight="200"><tspan x="0" y="0" letter-spacing="-0.019em">7</tspan><tspan y="0" letter-spacing="-0.009em">5</tspan><tspan y="0">%</tspan></text>
    <text id="Your_Text_Here" data-name="Your Text Here" transform="translate(496.114 180.2)" fill="#f2f2f2" font-size="1" font-family="Montserrat-Thin, Montserrat" font-weight="200"><tspan x="0" y="0" letter-spacing="-0.06em">Y</tspan><tspan y="0">our </tspan><tspan y="0" letter-spacing="-0.055em">T</tspan><tspan y="0" letter-spacing="-0.015em">e</tspan><tspan y="0">xt He</tspan><tspan y="0" letter-spacing="-0.014em">r</tspan><tspan y="0">e</tspan></text>
    <text id="Chart_01" data-name="Chart 01" transform="translate(492.333 195.305)" fill="#617087" font-size="2" font-family="Montserrat-Thin, Montserrat" font-weight="200"><tspan x="0" y="0">Cha</tspan><tspan y="0" letter-spacing="0.015em">r</tspan><tspan y="0">t 01</tspan></text>
    <g id="Group_24287" data-name="Group 24287">
      <g id="Group_24286" data-name="Group 24286" clip-path="url(#clip-path)">
        <path id="Path_70274" data-name="Path 70274" d="M583.545,262.335A13.945,13.945,0,1,1,597.49,248.39a13.96,13.96,0,0,1-13.944,13.945m0-25.692a11.747,11.747,0,1,0,11.747,11.747,11.76,11.76,0,0,0-11.747-11.747" transform="translate(-83.097 -34.202)" fill="#1ddba9"/>
        <path id="Path_70275" data-name="Path 70275" d="M593.542,249.2a9.183,9.183,0,1,1-9.183-9.183,9.184,9.184,0,0,1,9.183,9.183" transform="translate(-83.91 -35.016)" fill="#4a3dff"/>
      </g>
    </g>
    <text id="_50_2" data-name="50%" transform="translate(495.306 213.736)" font-size="3" font-family="Montserrat-Thin, Montserrat" font-weight="200"><tspan x="0" y="0">50%</tspan></text>
    <text id="_50_3" data-name="50%" transform="translate(495.306 213.736)" fill="#f2f5fa" font-size="3" font-family="Montserrat-Thin, Montserrat" font-weight="200"><tspan x="0" y="0">50%</tspan></text>
    <text id="Your_Text_Here-2" data-name="Your Text Here" transform="translate(496.114 217.63)" fill="#f2f2f2" font-size="1" font-family="Montserrat-Thin, Montserrat" font-weight="200"><tspan x="0" y="0" letter-spacing="-0.06em">Y</tspan><tspan y="0">our </tspan><tspan y="0" letter-spacing="-0.055em">T</tspan><tspan y="0" letter-spacing="-0.015em">e</tspan><tspan y="0">xt He</tspan><tspan y="0" letter-spacing="-0.014em">r</tspan><tspan y="0">e</tspan></text>
    <g id="Group_24289" data-name="Group 24289">
      <g id="Group_24288" data-name="Group 24288" clip-path="url(#clip-path)">
        <path id="Path_70276" data-name="Path 70276" d="M599.874,248.39a13.961,13.961,0,0,0-13.931-13.944v2.2a11.746,11.746,0,0,1,0,23.492v2.2a13.959,13.959,0,0,0,13.931-13.943" transform="translate(-85.481 -34.202)" fill="#4a3dff"/>
      </g>
    </g>
    <text id="Chart_02" data-name="Chart 02" transform="translate(492.333 232.734)" fill="#617087" font-size="2" font-family="Montserrat-Thin, Montserrat" font-weight="200"><tspan x="0" y="0">Cha</tspan><tspan y="0" letter-spacing="0.015em">r</tspan><tspan y="0">t 02</tspan></text>
    <g id="Group_24291" data-name="Group 24291">
      <g id="Group_24290" data-name="Group 24290" clip-path="url(#clip-path)">
        <path id="Path_70277" data-name="Path 70277" d="M583.545,306.156a13.945,13.945,0,1,1,13.944-13.945,13.96,13.96,0,0,1-13.944,13.945m0-25.692a11.747,11.747,0,1,0,11.747,11.747,11.76,11.76,0,0,0-11.747-11.747" transform="translate(-83.097 -40.595)" fill="#4a3dff"/>
        <path id="Path_70278" data-name="Path 70278" d="M593.542,293.025a9.183,9.183,0,1,1-9.183-9.183,9.183,9.183,0,0,1,9.183,9.183" transform="translate(-83.91 -41.408)" fill="#4a3dff"/>
      </g>
    </g>
    <text id="_96_" data-name="96%" transform="translate(495.306 251.164)" font-size="3" font-family="Montserrat-Thin, Montserrat" font-weight="200"><tspan x="0" y="0">9</tspan><tspan y="0" letter-spacing="-0.02em">6</tspan><tspan y="0">%</tspan></text>
    <text id="_96_2" data-name="96%" transform="translate(495.306 251.164)" fill="#f2f5fa" font-size="3" font-family="Montserrat-Thin, Montserrat" font-weight="200"><tspan x="0" y="0">9</tspan><tspan y="0" letter-spacing="-0.02em">6</tspan><tspan y="0">%</tspan></text>
    <text id="Your_Text_Here-3" data-name="Your Text Here" transform="translate(496.114 255.058)" fill="#f2f2f2" font-size="1" font-family="Montserrat-Thin, Montserrat" font-weight="200"><tspan x="0" y="0" letter-spacing="-0.06em">Y</tspan><tspan y="0">our </tspan><tspan y="0" letter-spacing="-0.055em">T</tspan><tspan y="0" letter-spacing="-0.015em">e</tspan><tspan y="0">xt He</tspan><tspan y="0" letter-spacing="-0.014em">r</tspan><tspan y="0">e</tspan></text>
    <g id="Group_24293" data-name="Group 24293">
      <g id="Group_24292" data-name="Group 24292" clip-path="url(#clip-path)">
        <path id="Path_70279" data-name="Path 70279" d="M585.023,280.5v-2.2c-.367.016-.733.04-1.092.084l.267,2.18c.272-.033.547-.051.825-.066" transform="translate(-85.187 -40.601)" fill="#1ddba9"/>
      </g>
    </g>
    <text id="Chart_03" data-name="Chart 03" transform="translate(492.333 270.163)" fill="#617087" font-size="2" font-family="Montserrat-Thin, Montserrat" font-weight="200"><tspan x="0" y="0">Cha</tspan><tspan y="0" letter-spacing="0.015em">r</tspan><tspan y="0">t </tspan><tspan y="0" letter-spacing="-0.009em">0</tspan><tspan y="0">3</tspan></text>
    <g id="Group_24295" data-name="Group 24295">
      <g id="Group_24294" data-name="Group 24294" clip-path="url(#clip-path)">
        <path id="Path_70280" data-name="Path 70280" d="M583.546,192.822c.076,0,.149.01.224.011v-2.2c-.075,0-.148-.011-.224-.011A13.959,13.959,0,0,0,569.6,204.493h2.2a11.758,11.758,0,0,1,11.743-11.671" transform="translate(-83.097 -27.809)" fill="#1ddba9"/>
        <path id="Path_70281" data-name="Path 70281" d="M583.116,372.986H425.889a6.424,6.424,0,0,1-6.424-6.425v-26.48a6.424,6.424,0,0,1,6.424-6.424H583.116a6.424,6.424,0,0,1,6.425,6.424v26.48a6.425,6.425,0,0,1-6.425,6.425" transform="translate(-61.194 -48.676)" fill="#fff"/>
      </g>
    </g>
    <text id="Lorem_ipsum_dolor_sit_amet_consectetuer_adipiscing_elit_sed_" data-name="Lorem ipsum dolor sit amet, consectetuer adipiscing elit, sed " transform="translate(407.922 301.568) rotate(-0.245)" fill="#2c2e36" font-size="2" font-family="Montserrat-Thin, Montserrat" font-weight="200"><tspan x="0" y="0" letter-spacing="-0.009em">L</tspan><tspan y="0">o</tspan><tspan y="0" letter-spacing="-0.015em">r</tspan><tspan y="0">em ipsum dolor s</tspan><tspan y="0" letter-spacing="-0.02em">i</tspan><tspan y="0">t ame</tspan><tspan y="0" letter-spacing="0.009em">t</tspan><tspan y="0">, </tspan><tspan y="0" letter-spacing="-0.01em">c</tspan><tspan y="0">onse</tspan><tspan y="0" letter-spacing="0.005em">c</tspan><tspan y="0" letter-spacing="-0.02em">t</tspan><tspan y="0">etuer adipis</tspan><tspan y="0" letter-spacing="-0.01em">c</tspan><tspan y="0">ing el</tspan><tspan y="0" letter-spacing="-0.02em">i</tspan><tspan y="0" letter-spacing="0.01em">t</tspan><tspan y="0">, sed </tspan></text>
    <text id="diam_nonummy_nibh_euismod_tincidunt_ut_laoreet_dolore_magna_" data-name="diam nonummy nibh euismod tincidunt ut laoreet dolore magna " transform="translate(407.939 305.595) rotate(-0.245)" fill="#2c2e36" font-size="2" font-family="Montserrat-Thin, Montserrat" font-weight="200"><tspan x="0" y="0">diam nonum</tspan><tspan y="0" letter-spacing="-0.025em">m</tspan><tspan y="0">y nibh euismod tin</tspan><tspan y="0" letter-spacing="-0.01em">c</tspan><tspan y="0">idunt ut lao</tspan><tspan y="0" letter-spacing="-0.015em">r</tspan><tspan y="0">eet dolo</tspan><tspan y="0" letter-spacing="-0.014em">r</tspan><tspan y="0">e magna </tspan></text>
    <text id="aliquam_erat_volutpat._Ut_wisi_enim_ad_minim_veniam_quis_" data-name="aliquam erat volutpat. Ut wisi enim ad minim veniam, quis " transform="translate(407.957 309.624) rotate(-0.245)" fill="#2c2e36" font-size="2" font-family="Montserrat-Thin, Montserrat" font-weight="200"><tspan x="0" y="0">aliquam e</tspan><tspan y="0" letter-spacing="-0.035em">r</tspan><tspan y="0">at </tspan><tspan y="0" letter-spacing="-0.014em">v</tspan><tspan y="0">olutpa</tspan><tspan y="0" letter-spacing="0.009em">t</tspan><tspan y="0">. Ut wisi enim ad minim </tspan><tspan y="0" letter-spacing="-0.015em">v</tspan><tspan y="0">eniam, quis </tspan></text>
    <text id="nostrud_exerci_tation_ullamcorper_suscipit_lobortis." data-name="nostrud exerci tation ullamcorper suscipit lobortis." transform="translate(407.974 313.652) rotate(-0.245)" fill="#2c2e36" font-size="2" font-family="Montserrat-Thin, Montserrat" font-weight="200"><tspan x="0" y="0">nostrud </tspan><tspan y="0" letter-spacing="-0.014em">e</tspan><tspan y="0" letter-spacing="-0.019em">x</tspan><tspan y="0">e</tspan><tspan y="0" letter-spacing="-0.014em">r</tspan><tspan y="0" letter-spacing="-0.01em">c</tspan><tspan y="0">i </tspan><tspan y="0" letter-spacing="-0.019em">t</tspan><tspan y="0">ation ullam</tspan><tspan y="0" letter-spacing="-0.01em">c</tspan><tspan y="0">o</tspan><tspan y="0" letter-spacing="-0.01em">r</tspan><tspan y="0">per sus</tspan><tspan y="0" letter-spacing="-0.01em">c</tspan><tspan y="0">ip</tspan><tspan y="0" letter-spacing="-0.02em">i</tspan><tspan y="0">t lobo</tspan><tspan y="0" letter-spacing="0.014em">r</tspan><tspan y="0">tis.</tspan></text>
    <text id="Recent_Update" data-name="Recent Update" transform="translate(407.918 294.722)" fill="#848484" font-size="3" font-family="Montserrat-Thin, Montserrat" font-weight="200"><tspan x="0" y="0">Recent Update</tspan></text>
    <text id="_01_12_2020" data-name="01/12/2020" transform="translate(370.565 301.917)" fill="#4a3dff" font-size="2" font-family="Montserrat-Thin, Montserrat" font-weight="200"><tspan x="0" y="0">01</tspan><tspan y="0" letter-spacing="0.03em">/</tspan><tspan y="0">1</tspan><tspan y="0" letter-spacing="0.009em">2</tspan><tspan y="0">/</tspan><tspan y="0" letter-spacing="-0.004em">2</tspan><tspan y="0">0</tspan><tspan y="0" letter-spacing="-0.004em">2</tspan><tspan y="0">0</tspan></text>
  </g>
</svg>
