<svg id="Group_24228" data-name="Group 24228" xmlns="http://www.w3.org/2000/svg" xmlns:xlink="http://www.w3.org/1999/xlink" width="50.437" height="43.682" viewBox="0 0 50.437 43.682">
  <defs>
    <clipPath id="clip-path">
      <rect id="Rectangle_8535" data-name="Rectangle 8535" width="50.437" height="43.682" fill="#dbdbdb"/>
    </clipPath>
  </defs>
  <g id="Group_24227" data-name="Group 24227" transform="translate(0 0)" clip-path="url(#clip-path)">
    <path id="Path_70159" data-name="Path 70159" d="M20.115,0V7.656a10.033,10.033,0,0,0-5.855,3,15.292,15.292,0,0,0-3.377,6,26.043,26.043,0,0,0-1.126,7.806h9.306V43.682H0V26.119q0-8.855,2.852-14.185a21.094,21.094,0,0,1,7.43-8.181A27.112,27.112,0,0,1,20.115,0M50.437,0V7.656a10.027,10.027,0,0,0-5.854,3,15.294,15.294,0,0,0-3.378,6,26.073,26.073,0,0,0-1.126,7.806h9.307V43.682H30.322V26.119q0-8.855,2.852-14.185a21.089,21.089,0,0,1,7.431-8.181A27.1,27.1,0,0,1,50.437,0" transform="translate(0 0)" fill="#dbdbdb"/>
  </g>
</svg>
