<svg xmlns="http://www.w3.org/2000/svg" width="21.123" height="21.212" viewBox="0 0 21.123 21.212">
  <path id="Path_78743" data-name="Path 78743" d="M14.05,6A5,5,0,0,1,18,9.95M14.05,2A9,9,0,0,1,22,9.94M10.227,13.863A14.6,14.6,0,0,1,7.38,9.853a1.7,1.7,0,0,1-.113-.266,1.046,1.046,0,0,1,.147-.862,2.02,2.02,0,0,1,.219-.238,5.019,5.019,0,0,0,.639-.7,2,2,0,0,0,0-2.18,5.019,5.019,0,0,0-.639-.7l-.195-.195A5,5,0,0,0,6.356,3.77a2,2,0,0,0-1.805,0,5,5,0,0,0-1.083.941l-.158.158a5.527,5.527,0,0,0-1,1.154A3.377,3.377,0,0,0,1.93,7.5a4.274,4.274,0,0,0,.242,1.26,19.038,19.038,0,0,0,4.873,8.284,19.039,19.039,0,0,0,8.284,4.874,4.274,4.274,0,0,0,1.26.241,3.377,3.377,0,0,0,1.478-.384,5.528,5.528,0,0,0,1.154-1l.158-.158a5,5,0,0,0,.941-1.083,2,2,0,0,0,0-1.805,5,5,0,0,0-.941-1.082l-.195-.195a5.019,5.019,0,0,0-.7-.639,2,2,0,0,0-2.18,0,5.019,5.019,0,0,0-.7.639,2.009,2.009,0,0,1-.238.219,1.045,1.045,0,0,1-.862.147,1.7,1.7,0,0,1-.266-.113A14.6,14.6,0,0,1,10.227,13.863Z" transform="translate(-1.43 -1.448)" fill="none" stroke="#3b19eb" stroke-linecap="round" stroke-linejoin="round" stroke-width="1"/>
</svg>
