<svg xmlns="http://www.w3.org/2000/svg" width="32.855" height="32.856" viewBox="0 0 32.855 32.856">
  <g id="Group_35230" data-name="Group 35230" transform="translate(-246.5 -1738)">
    <g id="_003-star" data-name="003-star" transform="translate(246.493 1738.001)">
      <path id="Path_70792" data-name="Path 70792" d="M32.507,15.96l-12.127-3.08L16.9.344a.485.485,0,0,0-.928,0l-1.4,5.04a.482.482,0,0,0,.928.258l.936-3.369,2.592,9.334L16.774,9.355a.482.482,0,0,0-.681,0l-2.252,2.252.971-3.5a.482.482,0,0,0-.928-.258l-1.4,5.027L.361,15.96a.484.484,0,0,0,0,.933l12.128,3.08L15.97,32.51a.485.485,0,0,0,.928,0l3.481-12.537,12.127-3.08A.484.484,0,0,0,32.507,15.96ZM11.263,14.186l-1.9,1.9a.481.481,0,0,0,0,.681l1.9,1.9L2.436,16.427Zm5.171,16.4-2.592-9.334L16.093,23.5a.482.482,0,0,0,.681,0l.733-.733a.482.482,0,0,0-.681-.681l-.393.393-6.05-6.05,6.05-6.05,6.05,6.05-3.555,3.555a.5.5,0,0,0,.224.808ZM21.6,18.669l1.9-1.9a.481.481,0,0,0,0-.681l-1.9-1.9,8.827,2.242Z" transform="translate(0 0)" fill="#1d04af"/>
      <path id="Path_70793" data-name="Path 70793" d="M113.291,130.038l2.126,1.841a.481.481,0,1,0,.63-.728l-2.126-1.841a.481.481,0,1,0-.63.728Z" transform="translate(-105.855 -120.899)" fill="#1d04af"/>
      <path id="Path_70794" data-name="Path 70794" d="M349.992,132a.48.48,0,0,0,.315-.117l2.126-1.841a.481.481,0,1,0-.63-.728l-2.126,1.841a.481.481,0,0,0,.315.846Z" transform="translate(-327.065 -120.898)" fill="#1d04af"/>
      <path id="Path_70795" data-name="Path 70795" d="M352.433,340.845,350.307,339a.481.481,0,1,0-.63.728l2.126,1.841a.482.482,0,1,0,.63-.728Z" transform="translate(-327.065 -317.13)" fill="#1d04af"/>
      <path id="Path_70796" data-name="Path 70796" d="M115.417,339l-2.126,1.841a.482.482,0,1,0,.63.728l2.126-1.841a.482.482,0,0,0-.63-.728Z" transform="translate(-105.856 -317.131)" fill="#1d04af"/>
      <path id="Path_70797" data-name="Path 70797" d="M218.943,216.573l-2.192-2.192a.482.482,0,0,0-.681,0l-2.192,2.192a.481.481,0,0,0,0,.681l2.192,2.192a.482.482,0,0,0,.681,0l2.192-2.192A.482.482,0,0,0,218.943,216.573Zm-2.532,1.851-1.511-1.511,1.511-1.511,1.511,1.511Z" transform="translate(-200.009 -200.486)" fill="#1d04af"/>
    </g>
  </g>
</svg>
